<svg width="100" height="100" viewBox="0 0 100 100" fill="none" xmlns="http://www.w3.org/2000/svg">
<path d="M50 0C22.4289 0 0 22.4289 0 50C0 77.5711 22.4289 100 50 100C77.5711 100 100 77.5711 100 50C100 22.4289 77.5711 0 50 0ZM71.875 54.1664H54.1664V71.875C54.1664 74.1753 52.3003 76.0414 50 76.0414C47.6997 76.0414 45.8336 74.1753 45.8336 71.875V54.1664H28.125C25.8247 54.1664 23.9586 52.3003 23.9586 50C23.9586 47.6997 25.8247 45.8336 28.125 45.8336H45.8336V28.125C45.8336 25.8247 47.6997 23.9586 50 23.9586C52.3003 23.9586 54.1664 25.8247 54.1664 28.125V45.8336H71.875C74.1753 45.8336 76.0414 47.6997 76.0414 50C76.0414 52.3003 74.1753 54.1664 71.875 54.1664V54.1664Z" fill="#4E7AB5"/>
</svg>
