<svg width="96" height="100" viewBox="0 0 96 100" fill="none" xmlns="http://www.w3.org/2000/svg">
<path d="M47.6748 2.42767e-05C47.436 0.00111128 47.1951 0.040651 46.9657 0.118915L1.46024 15.9569C0.494984 16.2917 -0.109525 17.2557 0.0165672 18.271L7.20947 77.2366C7.29425 77.9345 7.7066 78.5493 8.32619 78.8841L46.694 99.7367C47.0157 99.9128 47.3735 100 47.73 100C48.0887 100 48.4506 99.9108 48.7746 99.7325L87.3377 78.5954C87.9507 78.2584 88.3675 77.6457 88.4502 76.9522L95.6388 17.9908C95.7649 16.9712 95.1543 15.9986 94.1782 15.6681L48.3797 0.110423C48.1514 0.0343328 47.9137 -0.00106273 47.6748 2.42767e-05ZM47.8277 10.8658L76.0898 71.7379H66.4426L60.3962 58.7109H35.2592L29.2128 71.7379H19.5656L47.8277 10.8658ZM47.8277 31.5188L39.3058 49.9979H56.3496L47.8277 31.5188Z" fill="#DD0031"/>
</svg>
