<svg width="110" height="110" viewBox="0 0 110 110" fill="none" xmlns="http://www.w3.org/2000/svg">
<path d="M107.684 49.5L60.5 2.31579C59.0526 0.868422 57.0263 0 55 0C52.9737 0 50.9474 0.868422 49.5 2.31579L39.3684 12.4474L51.2368 24.3158C52.3947 23.7368 53.5526 23.4474 55 23.4474C59.9211 23.4474 63.6842 27.2105 63.6842 32.1316C63.6842 33.5789 63.3947 34.7368 62.8158 35.8947L74.3947 47.4737C75.5526 46.8947 76.7105 46.6053 78.1579 46.6053C83.0789 46.6053 86.8421 50.3684 86.8421 55.2895C86.8421 60.2105 83.0789 63.9737 78.1579 63.9737C73.2368 63.9737 69.4737 60.2105 69.4737 55.2895C69.4737 53.8421 69.7632 52.6842 70.3421 51.5263L58.7632 39.9474C58.4737 39.9474 58.1842 40.2368 57.8947 40.2368V70.3421C61.3684 71.5 63.6842 74.6842 63.6842 78.4474C63.6842 83.3684 59.9211 87.1316 55 87.1316C50.0789 87.1316 46.3158 83.3684 46.3158 78.4474C46.3158 74.6842 48.6316 71.5 52.1053 70.3421V39.9474C48.6316 38.7895 46.3158 35.6053 46.3158 31.8421C46.3158 30.3947 46.6053 29.2368 47.1842 28.0789L35.3158 16.2105L2.31579 49.5C0.868422 50.9474 0 52.9737 0 55C0 57.0263 0.868422 59.0526 2.31579 60.5L49.5 107.684C50.9474 109.132 52.9737 110 55 110C57.0263 110 59.0526 109.132 60.5 107.684L107.684 60.5C109.132 59.0526 110 57.0263 110 55C110 52.9737 109.132 50.9474 107.684 49.5Z" fill="#F4511E"/>
</svg>
