<svg width="268" height="90" viewBox="0 0 268 90" fill="none" xmlns="http://www.w3.org/2000/svg">
<path d="M103.328 25.8842C101.944 25.8842 100.681 26.0795 99.5395 26.4702C98.4325 26.8297 97.4621 27.435 96.6283 28.2861C95.8275 29.1023 95.1805 30.1643 94.6875 31.4721C94.2257 32.778 93.9636 34.3371 93.9014 36.1492C93.8045 39.0894 93.8045 42.0297 93.9014 44.9699C93.9636 46.7985 94.2257 48.3576 94.6875 49.647C95.1805 50.953 95.8275 52.0315 96.6283 52.8825C97.4586 53.6988 98.429 54.304 99.5395 54.6984C100.681 55.0579 101.944 55.2376 103.328 55.2376C104.687 55.2376 105.95 55.0423 107.116 54.6516C108.282 54.2261 109.283 53.608 110.12 52.7973C110.985 51.948 111.665 50.8695 112.16 49.5617C112.653 48.2558 112.899 46.7206 112.899 44.9561V42.4579H104.848C104.17 42.4579 103.831 42.0911 103.831 41.3574V40.6696C103.831 39.9359 104.17 39.5691 104.848 39.5691H114.734C115.426 39.5691 115.772 39.9359 115.772 40.6696V44.9809C115.772 46.9434 115.495 48.7409 114.941 50.3734C114.388 51.9746 113.571 53.3649 112.492 54.5443C111.445 55.7182 110.134 56.6326 108.558 57.2874C107.002 57.9073 105.246 58.2173 103.291 58.2173C101.288 58.2173 99.5326 57.9073 98.0243 57.2874C96.5142 56.6344 95.2359 55.7356 94.1894 54.5911C93.1723 53.4484 92.387 52.0929 91.8334 50.5247C91.3093 48.9234 91.017 47.159 90.9564 45.2312C90.8942 43.7639 90.863 42.2122 90.863 40.5761C90.863 38.9253 90.8942 37.3736 90.9564 35.9209C91.0187 33.995 91.3266 32.247 91.8801 30.6769C92.4337 29.0757 93.219 27.7037 94.2361 26.561C95.2826 25.4183 96.5609 24.5361 98.071 23.9143C99.581 23.2613 101.321 22.9348 103.291 22.9348C105.419 22.9348 107.237 23.2778 108.745 23.9638C110.255 24.6498 111.488 25.4752 112.443 26.44C113.398 27.3882 114.107 28.3851 114.57 29.4306C115.032 30.4761 115.279 31.3418 115.31 32.0278C115.341 32.3213 115.263 32.5662 115.076 32.7624C114.891 32.9275 114.645 33.01 114.337 33.01H113.32C113.043 33.01 112.842 32.9458 112.718 32.8174C112.597 32.6524 112.474 32.391 112.349 32.0333C112.104 31.2996 111.758 30.566 111.311 29.8323C110.879 29.0986 110.296 28.4456 109.563 27.8734C108.824 27.2864 107.946 26.8123 106.929 26.451C105.912 26.0915 104.71 25.9117 103.323 25.9117L103.328 25.8842ZM125.143 35.632C126.25 33.3759 128.345 32.2479 131.428 32.2479H133.14C133.818 32.2479 134.157 32.6074 134.157 33.3264V34.0142C134.157 34.7332 133.818 35.0927 133.14 35.0927H131.153C129.302 35.0927 127.838 35.6641 126.762 36.8068C125.685 37.9495 125.146 39.5012 125.146 41.462V56.6491C125.146 56.9755 125.038 57.2369 124.822 57.4332C124.637 57.6294 124.39 57.7276 124.082 57.7276H123.343C122.665 57.7276 122.326 57.3681 122.326 56.6491V33.3732C122.326 33.0467 122.418 32.7853 122.603 32.5891C122.788 32.3598 123.035 32.2452 123.343 32.2452H124.082C124.39 32.2452 124.637 32.3598 124.822 32.5891C125.038 32.7853 125.146 33.0467 125.146 33.3732V35.6292L125.143 35.632ZM153.684 57.7413C153.006 57.7413 152.667 57.3818 152.667 56.6628V54.36C152.391 54.8185 152.021 55.2771 151.559 55.7356C151.127 56.1942 150.588 56.6023 149.943 56.9599C149.296 57.3194 148.518 57.6129 147.608 57.8404C146.714 58.1008 145.667 58.231 144.468 58.231C143.361 58.231 142.297 58.0513 141.277 57.6918C140.291 57.3011 139.413 56.7784 138.643 56.1236C137.905 55.4706 137.305 54.703 136.843 53.8207C136.41 52.9403 136.194 51.9774 136.194 50.9319C136.194 49.8222 136.41 48.8253 136.843 47.9412C137.305 47.0608 137.936 46.2932 138.737 45.6384C139.538 44.9524 140.492 44.3976 141.601 43.9739C142.743 43.5153 143.991 43.1889 145.345 42.9944L152.647 41.9159V40.2019C152.647 38.4374 152.138 37.0654 151.121 36.086C150.135 35.1065 148.549 34.6168 146.362 34.6168C144.638 34.6168 143.297 34.9763 142.341 35.6953C141.417 36.3813 140.834 37.1333 140.592 37.9513C140.471 38.342 140.317 38.6199 140.13 38.785C139.974 38.9134 139.758 38.9776 139.481 38.9776H138.833C138.556 38.9776 138.31 38.8794 138.093 38.6832C137.908 38.4539 137.816 38.1925 137.816 37.8991C137.816 37.4405 137.97 36.8692 138.278 36.185C138.585 35.499 139.078 34.8295 139.756 34.1766C140.448 33.5236 141.342 32.9688 142.437 32.512C143.514 32.0223 144.826 31.7775 146.37 31.7775C148.186 31.7775 149.681 32.0388 150.854 32.5616C152.054 33.0843 152.994 33.7703 153.674 34.6195C154.352 35.4357 154.814 36.3501 155.06 37.3626C155.336 38.375 155.475 39.3719 155.475 40.3532V56.6683C155.475 57.3873 155.136 57.7468 154.458 57.7468H153.672L153.684 57.7413ZM144.951 55.389C145.997 55.389 146.983 55.2092 147.909 54.8497C148.864 54.459 149.696 53.8877 150.405 53.1357C151.097 52.402 151.65 51.4546 152.065 50.2936C152.467 49.1509 152.667 47.8119 152.667 46.2767V44.6122L146.708 45.4926C141.594 46.2263 139.038 47.9577 139.038 50.687C139.038 51.5032 139.207 52.2057 139.546 52.7945C139.915 53.3814 140.377 53.8712 140.932 54.2637C141.485 54.6544 142.117 54.9478 142.826 55.1441C143.518 55.3092 144.227 55.3917 144.954 55.3917L144.951 55.389ZM173.378 58.231C171.437 58.231 169.851 57.8642 168.619 57.1305C167.388 56.3968 166.386 55.4825 165.615 54.3875V65.9979C165.615 66.7169 165.276 67.0764 164.598 67.0764H163.811C163.133 67.0764 162.794 66.7169 162.794 65.9979V33.3264C162.794 32.6074 163.133 32.2479 163.811 32.2479H164.598C165.276 32.2479 165.615 32.6074 165.615 33.3264V35.6292C166.384 34.5196 167.386 33.6052 168.619 32.8862C169.851 32.1525 171.437 31.7857 173.378 31.7857C175.165 31.7857 176.674 32.1287 177.905 32.8147C179.168 33.4677 180.185 34.3499 180.957 35.4614C181.727 36.5399 182.28 37.7817 182.617 39.1867C182.986 40.5586 183.202 41.9636 183.266 43.4016C183.297 43.8914 183.313 44.4306 183.313 45.0194C183.313 45.6063 183.297 46.1456 183.266 46.6371C183.204 48.0788 182.988 49.5003 182.617 50.9016C182.278 52.2736 181.725 53.5153 180.957 54.6269C180.187 55.7054 179.17 56.5876 177.905 57.2736C176.674 57.9266 175.165 58.2531 173.378 58.2531V58.231ZM165.615 43.2365C165.584 43.7263 165.568 44.3627 165.568 45.1459C165.568 45.9291 165.584 46.5656 165.615 47.0553C165.646 48.0348 165.8 49.0317 166.076 50.046C166.384 51.0254 166.846 51.9077 167.462 52.6927C168.078 53.4759 168.856 54.1289 169.797 54.6516C170.721 55.1413 171.83 55.3862 173.124 55.3862C174.483 55.3862 175.607 55.1413 176.497 54.6516C177.42 54.1619 178.16 53.5089 178.715 52.6927C179.3 51.8435 179.715 50.8805 179.96 49.8039C180.237 48.6942 180.407 47.5506 180.469 46.373C180.5 45.4559 180.5 44.5416 180.469 43.63C180.407 42.4561 180.237 41.3281 179.96 40.2459C179.715 39.1674 179.3 38.22 178.715 37.4038C178.161 36.5546 177.422 35.8851 176.497 35.3954C175.602 34.8726 174.478 34.6113 173.124 34.6113C171.799 34.6113 170.674 34.8726 169.751 35.3954C168.827 35.9181 168.048 36.6041 167.415 37.4533C166.831 38.2696 166.384 39.1839 166.074 40.1964C165.797 41.2088 165.643 42.2213 165.612 43.2338L165.615 43.2365ZM192.425 35.632C193.255 34.4893 194.257 33.5584 195.43 32.8394C196.596 32.1204 198.182 31.7609 200.188 31.7609C201.759 31.7609 203.13 32.0388 204.301 32.5946C205.467 33.1503 206.437 33.9179 207.212 34.8974C208.013 35.8769 208.613 37.037 209.013 38.3778C209.414 39.7167 209.615 41.1703 209.615 42.7386V56.6546C209.615 57.3736 209.276 57.7331 208.597 57.7331H207.819C207.141 57.7331 206.802 57.3736 206.802 56.6546V42.9807C206.802 40.367 206.202 38.3255 205.001 36.8563C203.801 35.3523 202.045 34.6003 199.734 34.6003C197.517 34.6003 195.745 35.3339 194.42 36.8013C193.095 38.2686 192.433 40.3294 192.433 42.9834V56.6573C192.433 57.3763 192.094 57.7358 191.416 57.7358H190.63C189.952 57.7358 189.612 57.3763 189.612 56.6573V24.0133C189.612 23.2943 189.952 22.9348 190.63 22.9348H191.416C192.094 22.9348 192.433 23.2943 192.433 24.0133V35.6237L192.425 35.632ZM228.465 22.9431C230.251 22.9431 231.884 23.221 233.363 23.7767C234.842 24.3325 236.105 25.1817 237.151 26.3244C238.229 27.4341 239.061 28.8391 239.648 30.5394C240.263 32.2048 240.602 34.1812 240.665 36.4684C240.727 37.9357 240.758 39.3077 240.758 40.5843C240.758 41.8572 240.727 43.2292 240.665 44.7002C240.509 49.3719 239.385 52.8018 237.292 54.99L240.249 59.4003C240.281 59.4664 240.312 59.5306 240.343 59.5929C240.374 59.659 240.39 59.7736 240.39 59.9368C240.39 60.1973 240.297 60.4266 240.112 60.6247C239.927 60.8209 239.711 60.919 239.463 60.919H238.446C238.107 60.919 237.815 60.7723 237.569 60.4788C237.324 60.2184 237.123 59.9891 236.967 59.791L234.928 56.8004C233.077 57.7486 230.92 58.2228 228.457 58.2228C224.606 58.2228 221.634 57.1287 219.539 54.9405C217.475 52.7523 216.381 49.3389 216.257 44.7002C216.195 43.2329 216.163 41.8609 216.163 40.5843C216.163 39.3114 216.195 37.9394 216.257 36.4684C216.319 34.1812 216.643 32.2048 217.227 30.5394C217.843 28.8409 218.675 27.4359 219.723 26.3244C220.801 25.1817 222.064 24.3325 223.511 23.7767C224.99 23.221 226.639 22.9431 228.457 22.9431H228.465ZM228.465 25.887C227.171 25.887 225.969 26.0997 224.858 26.5252C223.751 26.9159 222.781 27.5524 221.947 28.4346C221.117 29.3151 220.454 30.4431 219.959 31.8187C219.498 33.1907 219.235 34.8231 219.173 36.716C219.142 37.4497 219.111 38.1357 219.08 38.774C219.08 39.3939 219.08 39.9992 219.08 40.5898C219.08 41.1768 219.08 41.7949 219.08 42.4442C219.111 43.0641 219.142 43.7336 219.173 44.4526C219.235 46.3785 219.498 48.0293 219.959 49.4049C220.452 50.7439 221.099 51.8536 221.9 52.734C222.73 53.6144 223.701 54.2674 224.811 54.6929C225.918 55.0836 227.133 55.2789 228.454 55.2789C229.779 55.2789 230.994 55.0836 232.097 54.6929C233.204 54.2674 234.159 53.6144 234.962 52.734C235.792 51.8536 236.439 50.7439 236.902 49.4049C237.395 48.033 237.672 46.3822 237.733 44.4526C237.764 43.7336 237.779 43.0641 237.779 42.4442C237.779 41.7912 237.779 41.1731 237.779 40.5898C237.779 40.0029 237.779 39.3976 237.779 38.774C237.779 38.154 237.764 37.468 237.733 36.716C237.67 34.8213 237.394 33.1889 236.902 31.8187C236.441 30.4467 235.794 29.3187 234.962 28.4346C234.131 27.5542 233.161 26.9178 232.05 26.5252C230.943 26.0997 229.741 25.887 228.444 25.887H228.465ZM251.02 54.7919H266.961C267.653 54.7919 267.999 55.1588 267.999 55.8925V56.627C267.999 57.346 267.653 57.7055 266.961 57.7055H249.126C248.448 57.7055 248.109 57.346 248.109 56.627V24.5086C248.109 23.7896 248.448 23.4301 249.126 23.4301H250.003C250.681 23.4301 251.02 23.7896 251.02 24.5086V54.7892V54.7919ZM6.86674 68.5841L3.75317 66.6747L38.4643 2.92749L41.5778 4.83688L6.86674 68.5841Z" fill="#E10098"/>
<path d="M3.04492 61.5847H72.4671V65.4008H3.04492V61.5847Z" fill="#E10098"/>
<path d="M39.1442 84.9874L4.41748 63.7282L6.21816 60.4267L40.9422 81.6803L39.1442 84.9874ZM69.3095 29.5765L34.5854 8.3201L36.3861 5.01855L71.1101 26.2777L69.3095 29.5765Z" fill="#E10098"/>
<path d="M6.22622 29.5655L4.42554 26.264L39.1782 5.02954L40.9788 8.33108L6.22622 29.5655Z" fill="#E10098"/>
<path d="M68.6683 68.5841L33.9546 4.83688L37.0682 2.92749L71.7793 66.6747L68.6683 68.5841ZM5.79761 23.7327H9.39119V66.251H5.79761V23.7327ZM66.1386 23.7327H69.7373V66.251H66.136L66.1386 23.7327Z" fill="#E10098"/>
<path d="M38.5294 83.3723L36.957 80.4835L67.1587 61.9949L68.731 64.8837L38.5294 83.3723Z" fill="#E10098"/>
<path d="M74.5065 67.4918C73.5019 69.3342 71.8489 70.6788 69.9104 71.2302C67.9718 71.7816 65.9062 71.4949 64.1668 70.4329C62.4292 69.3677 61.1613 67.6149 60.6412 65.5593C60.1212 63.5037 60.3916 61.3134 61.3931 59.469C62.3977 57.6265 64.0507 56.282 65.9892 55.7306C67.9278 55.1791 69.9935 55.4659 71.7328 56.5279C75.3757 58.7289 76.6107 63.6812 74.5091 67.4918H74.5065ZM14.124 30.5145C13.1194 32.357 11.4664 33.7015 9.5279 34.2529C7.58935 34.8044 5.52368 34.5176 3.78434 33.4556C2.04675 32.3904 0.778764 30.6376 0.258739 28.5821C-0.261286 26.5265 0.0091443 24.3361 1.01067 22.4917C2.01523 20.6493 3.66821 19.3047 5.60675 18.7533C7.54529 18.2019 9.61097 18.4886 11.3503 19.5506C14.9698 21.7517 16.2023 26.704 14.1266 30.5145H14.124ZM1.03402 67.4918C-1.04688 63.6537 0.188165 58.7592 3.81028 56.5279C7.42981 54.3214 12.0457 55.631 14.1499 59.4718C16.2308 63.3098 14.9958 68.2043 11.3737 70.4356C7.73079 72.6422 3.11492 71.3325 1.03402 67.4918V67.4918ZM61.4191 30.5145C59.3382 26.6765 60.5732 21.7819 64.1954 19.5506C67.8149 17.3441 72.4308 18.6537 74.535 22.4945C76.6159 26.3325 75.3809 31.2271 71.7587 33.4584C70.0194 34.5203 67.9537 34.8071 66.0152 34.2557C64.0766 33.7043 62.4237 32.3597 61.4191 30.5172V30.5145ZM37.7638 90C33.5812 90 30.2004 86.4151 30.2004 81.98C30.2004 77.5449 33.589 73.96 37.7638 73.96C41.9385 73.96 45.3271 77.5449 45.3271 81.98C45.3237 84.1059 44.5257 86.1437 43.1081 87.647C41.6904 89.1502 39.7686 89.9964 37.7638 90V90ZM37.7638 16.04C33.5812 16.04 30.2004 12.4551 30.2004 8.01999C30.2004 3.58492 33.589 0 37.7638 0C41.9385 0 45.3271 3.58492 45.3271 8.01999C45.3288 9.0737 45.1344 10.1174 44.7549 11.0913C44.3754 12.0651 43.8184 12.9499 43.1157 13.695C42.413 14.4401 41.5786 15.0308 40.6602 15.4332C39.7418 15.8356 38.7575 16.0418 37.7638 16.04Z" fill="#E10098"/>
</svg>
