<svg width="785" height="122" viewBox="0 0 785 122" fill="none" xmlns="http://www.w3.org/2000/svg">
<path d="M326.328 39.8842C324.944 39.8842 323.681 40.0795 322.54 40.4702C321.432 40.8297 320.462 41.435 319.628 42.2861C318.827 43.1023 318.181 44.1643 317.688 45.4721C317.226 46.778 316.964 48.3371 316.901 50.1492C316.805 53.0894 316.805 56.0297 316.901 58.9699C316.964 60.7985 317.226 62.3576 317.688 63.647C318.181 64.953 318.827 66.0315 319.628 66.8825C320.459 67.6988 321.429 68.304 322.54 68.6984C323.681 69.0579 324.944 69.2376 326.328 69.2376C327.687 69.2376 328.95 69.0423 330.116 68.6516C331.282 68.2261 332.283 67.608 333.12 66.7973C333.985 65.948 334.665 64.8695 335.16 63.5617C335.653 62.2558 335.899 60.7206 335.899 58.9561V56.4579H327.848C327.17 56.4579 326.831 56.0911 326.831 55.3574V54.6696C326.831 53.9359 327.17 53.5691 327.848 53.5691H337.734C338.426 53.5691 338.772 53.9359 338.772 54.6696V58.9809C338.772 60.9434 338.495 62.7409 337.941 64.3734C337.388 65.9746 336.571 67.3649 335.492 68.5443C334.445 69.7182 333.134 70.6326 331.558 71.2874C330.002 71.9073 328.246 72.2173 326.291 72.2173C324.288 72.2173 322.533 71.9073 321.024 71.2874C319.514 70.6344 318.236 69.7356 317.189 68.5911C316.172 67.4484 315.387 66.0929 314.833 64.5247C314.309 62.9234 314.017 61.159 313.956 59.2312C313.894 57.7639 313.863 56.2122 313.863 54.5761C313.863 52.9253 313.894 51.3736 313.956 49.9209C314.019 47.995 314.327 46.247 314.88 44.6769C315.434 43.0757 316.219 41.7037 317.236 40.561C318.283 39.4183 319.561 38.5361 321.071 37.9143C322.581 37.2613 324.321 36.9348 326.291 36.9348C328.419 36.9348 330.237 37.2778 331.745 37.9638C333.255 38.6498 334.488 39.4752 335.443 40.44C336.398 41.3882 337.107 42.3851 337.57 43.4306C338.032 44.4761 338.279 45.3418 338.31 46.0278C338.341 46.3213 338.263 46.5662 338.076 46.7624C337.891 46.9275 337.645 47.01 337.337 47.01H336.32C336.043 47.01 335.842 46.9458 335.718 46.8174C335.597 46.6524 335.474 46.391 335.349 46.0333C335.104 45.2996 334.758 44.566 334.311 43.8323C333.879 43.0986 333.296 42.4456 332.563 41.8734C331.824 41.2864 330.946 40.8123 329.929 40.451C328.912 40.0915 327.71 39.9117 326.323 39.9117L326.328 39.8842ZM348.143 49.632C349.25 47.3759 351.345 46.2479 354.428 46.2479H356.14C356.818 46.2479 357.157 46.6074 357.157 47.3264V48.0142C357.157 48.7332 356.818 49.0927 356.14 49.0927H354.153C352.302 49.0927 350.838 49.6641 349.762 50.8068C348.685 51.9495 348.146 53.5012 348.146 55.462V70.6491C348.146 70.9755 348.038 71.2369 347.822 71.4332C347.637 71.6294 347.39 71.7276 347.082 71.7276H346.343C345.665 71.7276 345.326 71.3681 345.326 70.6491V47.3732C345.326 47.0467 345.418 46.7853 345.603 46.5891C345.788 46.3598 346.035 46.2452 346.343 46.2452H347.082C347.39 46.2452 347.637 46.3598 347.822 46.5891C348.038 46.7853 348.146 47.0467 348.146 47.3732V49.6292L348.143 49.632ZM376.684 71.7413C376.006 71.7413 375.667 71.3818 375.667 70.6628V68.36C375.391 68.8185 375.021 69.2771 374.559 69.7356C374.127 70.1942 373.588 70.6023 372.943 70.9599C372.296 71.3194 371.518 71.6129 370.608 71.8404C369.714 72.1008 368.667 72.231 367.468 72.231C366.361 72.231 365.297 72.0513 364.277 71.6918C363.291 71.3011 362.413 70.7784 361.643 70.1236C360.905 69.4706 360.305 68.703 359.843 67.8207C359.41 66.9403 359.194 65.9774 359.194 64.9319C359.194 63.8222 359.41 62.8253 359.843 61.9412C360.305 61.0608 360.936 60.2932 361.737 59.6384C362.538 58.9524 363.492 58.3976 364.601 57.9739C365.743 57.5153 366.991 57.1889 368.345 56.9944L375.647 55.9159V54.2019C375.647 52.4374 375.138 51.0654 374.121 50.086C373.135 49.1065 371.549 48.6168 369.362 48.6168C367.638 48.6168 366.297 48.9763 365.341 49.6953C364.417 50.3813 363.834 51.1333 363.592 51.9513C363.471 52.342 363.317 52.6199 363.13 52.785C362.974 52.9134 362.758 52.9776 362.481 52.9776H361.833C361.556 52.9776 361.31 52.8794 361.093 52.6832C360.908 52.4539 360.816 52.1925 360.816 51.8991C360.816 51.4405 360.97 50.8692 361.278 50.185C361.585 49.499 362.078 48.8295 362.756 48.1766C363.448 47.5236 364.342 46.9688 365.437 46.512C366.514 46.0223 367.826 45.7775 369.37 45.7775C371.186 45.7775 372.681 46.0388 373.854 46.5616C375.054 47.0843 375.994 47.7703 376.674 48.6195C377.352 49.4357 377.814 50.3501 378.06 51.3626C378.336 52.375 378.475 53.3719 378.475 54.3532V70.6683C378.475 71.3873 378.136 71.7468 377.458 71.7468H376.672L376.684 71.7413ZM367.951 69.389C368.997 69.389 369.983 69.2092 370.909 68.8497C371.864 68.459 372.696 67.8877 373.405 67.1357C374.097 66.402 374.65 65.4546 375.065 64.2936C375.467 63.1509 375.667 61.8119 375.667 60.2767V58.6122L369.708 59.4926C364.594 60.2263 362.038 61.9577 362.038 64.687C362.038 65.5032 362.207 66.2057 362.546 66.7945C362.915 67.3814 363.377 67.8712 363.932 68.2637C364.485 68.6544 365.117 68.9478 365.826 69.1441C366.518 69.3092 367.227 69.3917 367.954 69.3917L367.951 69.389ZM396.378 72.231C394.437 72.231 392.851 71.8642 391.619 71.1305C390.388 70.3968 389.386 69.4825 388.615 68.3875V79.9979C388.615 80.7169 388.276 81.0764 387.598 81.0764H386.811C386.133 81.0764 385.794 80.7169 385.794 79.9979V47.3264C385.794 46.6074 386.133 46.2479 386.811 46.2479H387.598C388.276 46.2479 388.615 46.6074 388.615 47.3264V49.6292C389.384 48.5196 390.386 47.6052 391.619 46.8862C392.851 46.1525 394.437 45.7857 396.378 45.7857C398.165 45.7857 399.674 46.1287 400.905 46.8147C402.168 47.4677 403.185 48.3499 403.957 49.4614C404.727 50.5399 405.28 51.7817 405.617 53.1867C405.986 54.5586 406.202 55.9636 406.266 57.4016C406.297 57.8914 406.313 58.4306 406.313 59.0194C406.313 59.6063 406.297 60.1456 406.266 60.6371C406.204 62.0788 405.988 63.5003 405.617 64.9016C405.278 66.2736 404.725 67.5153 403.957 68.6269C403.187 69.7054 402.17 70.5876 400.905 71.2736C399.674 71.9266 398.165 72.2531 396.378 72.2531V72.231ZM388.615 57.2365C388.584 57.7263 388.568 58.3627 388.568 59.1459C388.568 59.9291 388.584 60.5656 388.615 61.0553C388.646 62.0348 388.8 63.0317 389.076 64.046C389.384 65.0254 389.846 65.9077 390.462 66.6927C391.078 67.4759 391.856 68.1289 392.797 68.6516C393.721 69.1413 394.83 69.3862 396.124 69.3862C397.483 69.3862 398.607 69.1413 399.497 68.6516C400.42 68.1619 401.16 67.5089 401.715 66.6927C402.3 65.8435 402.715 64.8805 402.96 63.8039C403.237 62.6942 403.407 61.5506 403.469 60.373C403.5 59.4559 403.5 58.5416 403.469 57.63C403.407 56.4561 403.237 55.3281 402.96 54.2459C402.715 53.1674 402.3 52.22 401.715 51.4038C401.161 50.5546 400.422 49.8851 399.497 49.3954C398.602 48.8726 397.478 48.6113 396.124 48.6113C394.799 48.6113 393.674 48.8726 392.751 49.3954C391.827 49.9181 391.048 50.6041 390.415 51.4533C389.831 52.2696 389.384 53.1839 389.074 54.1964C388.797 55.2088 388.643 56.2213 388.612 57.2338L388.615 57.2365ZM415.425 49.632C416.255 48.4893 417.257 47.5584 418.43 46.8394C419.596 46.1204 421.182 45.7609 423.188 45.7609C424.759 45.7609 426.13 46.0388 427.301 46.5946C428.467 47.1503 429.437 47.9179 430.212 48.8974C431.013 49.8769 431.613 51.037 432.013 52.3778C432.414 53.7167 432.615 55.1703 432.615 56.7386V70.6546C432.615 71.3736 432.276 71.7331 431.597 71.7331H430.819C430.141 71.7331 429.802 71.3736 429.802 70.6546V56.9807C429.802 54.367 429.202 52.3255 428.001 50.8563C426.801 49.3523 425.045 48.6003 422.734 48.6003C420.517 48.6003 418.745 49.3339 417.42 50.8013C416.095 52.2686 415.433 54.3294 415.433 56.9834V70.6573C415.433 71.3763 415.094 71.7358 414.416 71.7358H413.63C412.952 71.7358 412.612 71.3763 412.612 70.6573V38.0133C412.612 37.2943 412.952 36.9348 413.63 36.9348H414.416C415.094 36.9348 415.433 37.2943 415.433 38.0133V49.6237L415.425 49.632ZM451.465 36.9431C453.251 36.9431 454.884 37.221 456.363 37.7767C457.842 38.3325 459.105 39.1817 460.151 40.3244C461.229 41.4341 462.061 42.8391 462.648 44.5394C463.263 46.2048 463.602 48.1812 463.665 50.4684C463.727 51.9357 463.758 53.3077 463.758 54.5843C463.758 55.8572 463.727 57.2292 463.665 58.7002C463.509 63.3719 462.385 66.8018 460.292 68.99L463.249 73.4003C463.281 73.4664 463.312 73.5306 463.343 73.5929C463.374 73.659 463.39 73.7736 463.39 73.9368C463.39 74.1973 463.297 74.4266 463.112 74.6247C462.927 74.8209 462.711 74.919 462.463 74.919H461.446C461.107 74.919 460.815 74.7723 460.569 74.4788C460.324 74.2184 460.123 73.9891 459.967 73.791L457.928 70.8004C456.077 71.7486 453.92 72.2228 451.457 72.2228C447.606 72.2228 444.634 71.1287 442.539 68.9405C440.475 66.7523 439.381 63.3389 439.257 58.7002C439.195 57.2329 439.163 55.8609 439.163 54.5843C439.163 53.3114 439.195 51.9394 439.257 50.4684C439.319 48.1812 439.643 46.2048 440.227 44.5394C440.843 42.8409 441.675 41.4359 442.723 40.3244C443.801 39.1817 445.064 38.3325 446.511 37.7767C447.99 37.221 449.639 36.9431 451.457 36.9431H451.465ZM451.465 39.887C450.171 39.887 448.969 40.0997 447.858 40.5252C446.751 40.9159 445.781 41.5524 444.947 42.4346C444.117 43.3151 443.454 44.4431 442.959 45.8187C442.498 47.1907 442.235 48.8231 442.173 50.716C442.142 51.4497 442.111 52.1357 442.08 52.774C442.08 53.3939 442.08 53.9992 442.08 54.5898C442.08 55.1768 442.08 55.7949 442.08 56.4442C442.111 57.0641 442.142 57.7336 442.173 58.4526C442.235 60.3785 442.498 62.0293 442.959 63.4049C443.452 64.7439 444.099 65.8536 444.9 66.734C445.73 67.6144 446.701 68.2674 447.811 68.6929C448.918 69.0836 450.133 69.2789 451.454 69.2789C452.779 69.2789 453.994 69.0836 455.097 68.6929C456.204 68.2674 457.159 67.6144 457.962 66.734C458.792 65.8536 459.439 64.7439 459.902 63.4049C460.395 62.033 460.672 60.3822 460.733 58.4526C460.764 57.7336 460.779 57.0641 460.779 56.4442C460.779 55.7912 460.779 55.1731 460.779 54.5898C460.779 54.0029 460.779 53.3976 460.779 52.774C460.779 52.154 460.764 51.468 460.733 50.716C460.67 48.8213 460.394 47.1889 459.902 45.8187C459.441 44.4467 458.794 43.3187 457.962 42.4346C457.131 41.5542 456.161 40.9178 455.05 40.5252C453.943 40.0997 452.741 39.887 451.444 39.887H451.465ZM474.02 68.7919H489.961C490.653 68.7919 490.999 69.1588 490.999 69.8925V70.627C490.999 71.346 490.653 71.7055 489.961 71.7055H472.126C471.448 71.7055 471.109 71.346 471.109 70.627V38.5086C471.109 37.7896 471.448 37.4301 472.126 37.4301H473.003C473.681 37.4301 474.02 37.7896 474.02 38.5086V68.7892V68.7919ZM229.867 82.5841L226.753 80.6747L261.464 16.9275L264.578 18.8369L229.867 82.5841Z" fill="#E10098"/>
<path d="M226.045 75.5847H295.467V79.4008H226.045V75.5847Z" fill="#E10098"/>
<path d="M262.144 98.9874L227.417 77.7282L229.218 74.4267L263.942 95.6803L262.144 98.9874ZM292.309 43.5765L257.585 22.3201L259.386 19.0186L294.11 40.2777L292.309 43.5765Z" fill="#E10098"/>
<path d="M229.226 43.5655L227.426 40.264L262.178 19.0295L263.979 22.3311L229.226 43.5655Z" fill="#E10098"/>
<path d="M291.668 82.5841L256.955 18.8369L260.068 16.9275L294.779 80.6747L291.668 82.5841ZM228.798 37.7327H232.391V80.251H228.798V37.7327ZM289.139 37.7327H292.737V80.251H289.136L289.139 37.7327Z" fill="#E10098"/>
<path d="M261.529 97.3723L259.957 94.4835L290.159 75.9949L291.731 78.8837L261.529 97.3723Z" fill="#E10098"/>
<path d="M297.506 81.4918C296.502 83.3342 294.849 84.6788 292.91 85.2302C290.972 85.7816 288.906 85.4949 287.167 84.4329C285.429 83.3677 284.161 81.6149 283.641 79.5593C283.121 77.5037 283.392 75.3134 284.393 73.469C285.398 71.6265 287.051 70.282 288.989 69.7306C290.928 69.1791 292.993 69.4659 294.733 70.5279C298.376 72.7289 299.611 77.6812 297.509 81.4918H297.506ZM237.124 44.5145C236.119 46.357 234.466 47.7015 232.528 48.2529C230.589 48.8044 228.524 48.5176 226.784 47.4556C225.047 46.3904 223.779 44.6376 223.259 42.5821C222.739 40.5265 223.009 38.3361 224.011 36.4917C225.015 34.6493 226.668 33.3047 228.607 32.7533C230.545 32.2019 232.611 32.4886 234.35 33.5506C237.97 35.7517 239.202 40.704 237.127 44.5145H237.124ZM224.034 81.4918C221.953 77.6537 223.188 72.7592 226.81 70.5279C230.43 68.3214 235.046 69.631 237.15 73.4718C239.231 77.3098 237.996 82.2043 234.374 84.4356C230.731 86.6422 226.115 85.3325 224.034 81.4918V81.4918ZM284.419 44.5145C282.338 40.6765 283.573 35.7819 287.195 33.5506C290.815 31.3441 295.431 32.6537 297.535 36.4945C299.616 40.3325 298.381 45.2271 294.759 47.4584C293.019 48.5203 290.954 48.8071 289.015 48.2557C287.077 47.7043 285.424 46.3597 284.419 44.5172V44.5145ZM260.764 104C256.581 104 253.2 100.415 253.2 95.98C253.2 91.5449 256.589 87.96 260.764 87.96C264.939 87.96 268.327 91.5449 268.327 95.98C268.324 98.1059 267.526 100.144 266.108 101.647C264.69 103.15 262.769 103.996 260.764 104V104ZM260.764 30.04C256.581 30.04 253.2 26.4551 253.2 22.02C253.2 17.5849 256.589 14 260.764 14C264.939 14 268.327 17.5849 268.327 22.02C268.329 23.0737 268.134 24.1174 267.755 25.0913C267.375 26.0651 266.818 26.9499 266.116 27.695C265.413 28.4401 264.579 29.0308 263.66 29.4332C262.742 29.8356 261.757 30.0418 260.764 30.04Z" fill="#E10098"/>
<path d="M548.153 0.269897L550.819 5.28405C551.4 6.18852 552.075 7.02819 552.835 7.78867C555.068 10.0218 557.193 12.3626 559.096 14.8696C563.616 20.8059 566.666 27.3977 568.846 34.5349C570.152 38.8935 570.861 43.3598 570.915 47.8798C571.135 61.3887 566.503 72.9897 557.135 82.6316C555.617 84.1599 553.978 85.5628 552.233 86.8263C551.304 86.8263 550.871 86.0926 550.489 85.4639C549.755 84.241 549.344 82.9031 549.127 81.5431C548.799 79.9092 548.581 78.2754 548.691 76.5852V75.8221C548.638 75.6582 547.821 0.653909 548.146 0.272344L548.153 0.269897Z" fill="#599636"/>
<path d="M548.153 0.108259C548.043 -0.111874 547.933 0.0544499 547.825 0.162071C547.879 1.25051 547.498 2.23132 546.896 3.15833C546.243 4.08778 545.37 4.79221 544.499 5.55534C539.651 9.7501 535.84 14.8156 532.788 20.4804C528.757 28.1068 526.634 36.2762 526.037 44.8834C525.768 47.9897 527.016 58.9377 527.999 62.0954C530.665 70.4849 535.459 77.5096 541.696 83.6097C543.222 85.0773 544.856 86.4421 546.544 87.7482C547.033 87.7482 547.089 87.3129 547.197 86.9851C547.411 86.2895 547.575 85.5791 547.686 84.8596C548.175 82.1373 548.449 79.4125 548.774 76.6902L548.175 0.108259H548.153Z" fill="#6CAC48"/>
<path d="M550.826 90.1478C550.936 88.8955 551.56 87.8609 552.189 86.8262C551.536 86.5572 551.044 86.0093 550.662 85.4076C550.335 84.8622 550.063 84.1846 549.845 83.6099C549.082 81.3229 548.916 78.9259 548.701 76.5827V75.1641C548.432 75.3842 548.373 77.2333 548.373 77.5073C548.209 80.0119 547.884 82.4652 547.395 84.8597C547.231 85.8381 547.126 86.8214 546.524 87.6921C546.524 87.8022 546.524 87.9122 546.578 88.0737C547.556 90.9599 547.83 93.9023 547.996 96.8986V97.987C547.996 99.2931 547.943 99.0216 549.031 99.4546C549.466 99.6184 549.96 99.6747 550.393 100C550.721 100 550.775 99.731 550.775 99.5108L550.611 97.7131V92.6989C550.557 91.8282 550.721 90.955 550.831 90.138L550.826 90.1478Z" fill="#C2BFBF"/>
<path d="M592.189 67.3673V72.5548C592.183 72.7602 592.195 72.9658 592.224 73.1692C592.292 73.7836 592.669 74.1583 593.223 74.3306C593.741 74.4668 594.266 74.5694 594.797 74.6378C595.104 74.6728 595.206 74.8076 595.241 75.1373C595.276 76.2987 595.174 76.4361 594.047 76.3661C591.42 76.2288 588.79 76.1963 586.163 76.3661H585.913C585.094 76.4011 585.026 76.3312 585.026 75.512C585.026 75.3746 585.061 75.2048 585.061 75.0674C585.061 74.8176 585.231 74.6927 585.471 74.6927C586.02 74.6253 586.53 74.4879 587.044 74.3855C587.761 74.2157 588.168 73.7711 588.238 73.0543C588.338 72.2701 588.338 71.4509 588.338 70.6641L588.373 61.5179C588.384 61.2526 588.32 60.9896 588.187 60.7597C588.054 60.5297 587.859 60.3422 587.624 60.2192C587.006 59.8761 586.353 59.6014 585.676 59.4C585.471 59.3325 585.266 59.3001 585.096 59.1952C584.597 58.9554 584.584 58.5133 585.061 58.2386C585.231 58.1387 585.436 58.0687 585.641 58.0338C587.712 57.7281 589.747 57.2134 591.715 56.4978C592.124 56.3604 592.227 56.3979 592.264 56.805C592.299 57.0547 592.264 57.3544 592.229 57.5892C592.162 58.0338 592.162 58.4759 592.162 58.888C592.162 59.0578 592.197 59.2301 592.367 59.3325C592.536 59.4349 592.709 59.3325 592.866 59.2326C593.583 58.6832 594.3 58.1736 595.084 57.7341C596.208 57.1197 597.407 56.5727 598.705 56.4028C600.279 56.198 601.64 56.6077 602.836 57.6317C603.331 58.0744 603.767 58.5789 604.133 59.1327C604.475 59.6322 604.507 59.6447 604.952 59.3026C606.251 58.346 607.614 57.4943 609.083 56.8799C610.619 56.2305 612.19 56.1306 613.758 56.6751C615.362 57.2545 616.456 58.3809 617.105 59.917C617.655 61.1458 617.889 62.4146 617.889 63.7383V72.8845C617.889 73.4989 618.139 73.8835 618.744 74.1832C619.393 74.433 620.11 74.5579 620.792 74.6952C621.236 74.7951 621.236 74.7951 621.236 75.2447C621.169 76.3686 621.066 76.4386 619.972 76.3686C617.233 76.2151 614.487 76.2151 611.748 76.3686C611.198 76.4036 611.198 76.4036 611.168 75.8566V75.6868C611.133 74.7627 611.133 74.7627 612.023 74.5629L612.909 74.3231C613.21 74.2524 613.477 74.0826 613.67 73.8411C613.862 73.5996 613.967 73.3005 613.968 72.9919L614.068 70.4318L614.001 63.7433C613.975 63.1461 613.848 62.5576 613.626 62.0025C612.772 59.9195 610.896 59.1702 609.085 59.375C607.719 59.5124 606.525 60.0568 605.399 60.8436C605.159 61.0134 604.989 61.2182 605.024 61.5604C605.332 63.7458 605.124 65.9312 605.162 68.1141V72.8595C605.162 73.7137 605.504 74.1233 606.323 74.3281L607.897 74.6703C608.136 74.7052 608.271 74.8076 608.271 75.0799V75.3296C608.236 76.2862 608.171 76.3287 607.212 76.3187C604.482 76.1813 601.75 76.2188 599.055 76.3187C598.131 76.3536 598.056 76.2512 598.099 75.3196C598.134 74.7702 598.198 74.7402 598.713 74.6378L599.837 74.433C600.836 74.2282 601.203 73.8536 601.27 72.7946L601.37 70.5068L601.303 63.6459C601.236 62.7917 601.053 61.9725 600.586 61.1882C599.904 59.9245 598.838 59.2776 597.377 59.2076C595.908 59.1077 594.612 59.6522 593.381 60.3316C592.526 60.8311 592.152 61.423 592.219 62.4146V67.3973L592.189 67.3673ZM656.495 67.5746V72.3875C656.5 72.7297 656.523 73.0715 656.562 73.4115C656.577 73.6381 656.665 73.8539 656.812 74.0264C656.96 74.1989 657.16 74.3188 657.381 74.3681C657.97 74.5397 658.577 74.6428 659.19 74.6753C659.532 74.7102 659.599 74.8451 659.634 75.1198V75.3596C659.599 76.5534 659.464 76.6908 658.303 76.6234C655.706 76.4535 653.116 76.486 650.521 76.6234L649.522 76.6583C649.317 76.6583 649.272 76.5584 649.214 76.4186C649.115 75.9459 649.115 75.4576 649.214 74.985C649.249 74.7802 649.384 74.7352 649.589 74.6778C650.088 74.6103 650.513 74.5079 650.988 74.428C651.842 74.2232 652.149 73.8785 652.181 72.9944L652.281 70.1271V61.7302C652.281 61.1158 652.042 60.7412 651.497 60.4664C650.883 60.1243 650.233 59.887 649.549 59.6472C649.344 59.5798 649.139 59.5099 648.97 59.4075C648.525 59.1003 648.47 58.6582 648.902 58.316C649.096 58.1567 649.334 58.0608 649.584 58.0413C651.769 57.6991 653.885 57.2221 655.933 56.4028C656.173 56.3029 656.275 56.3679 656.377 56.5727C656.48 56.7775 656.515 57.0173 656.477 57.2545L656.377 58.858C656.377 59.0628 656.278 59.3575 656.445 59.4374C656.65 59.5748 656.787 59.2676 656.957 59.1877C657.965 58.3423 659.078 57.6312 660.269 57.0722C661.328 56.5727 662.417 56.253 663.648 56.3229C665.936 56.4603 667.574 57.6217 668.631 59.6347C669.18 60.6937 669.415 61.8526 669.517 63.0489L669.617 65.5465L669.652 73.0893C669.687 73.6687 669.892 74.0459 670.471 74.2507C671.072 74.4509 671.689 74.5996 672.315 74.6952C672.864 74.7627 672.894 74.8651 672.929 75.3771V75.5469C672.862 76.7083 672.792 76.7408 671.63 76.6708C669.084 76.5343 666.532 76.5343 663.985 76.6708C663.643 76.7058 663.303 76.6708 662.986 76.7058C662.781 76.7058 662.644 76.6708 662.611 76.466C662.544 76.0215 662.474 75.5794 662.576 75.0999C662.611 74.8951 662.714 74.7926 662.951 74.7577L664.525 74.5079C665.074 74.3705 665.379 74.0084 665.449 73.5089L665.516 72.5523L665.481 65.4192C665.481 64.6 665.446 63.7807 665.276 62.9615C664.867 61.2132 663.536 59.9644 661.73 59.7896C660.156 59.6198 658.733 60.0294 657.429 60.881C656.78 61.2906 656.505 61.8701 656.505 62.5869V67.7419C656.505 67.642 656.505 67.642 656.54 67.642L656.495 67.5746Z" fill="#47474A"/>
<path d="M756.463 57.9139C756.089 55.4213 755.165 53.2035 753.561 51.2578C752.164 49.539 750.356 48.2006 748.304 47.3666C746.156 46.4799 743.866 46.2052 741.545 46.1378C740.589 46.1028 727.551 46.3076 726.595 46.1378C726.355 46.1028 726.185 46.1727 726.045 46.3775C725.875 46.6273 725.703 46.8895 725.601 47.1618C725.191 48.0859 725.191 48.0159 726.18 48.1508C726.999 48.2882 727.784 48.3556 728.57 48.5954C729.287 48.8352 729.799 49.2448 729.969 50.029C730.036 50.4037 730.106 62.4171 730.106 68.0167L729.969 72.0128C729.934 72.32 729.902 72.6272 729.799 72.8995C729.662 73.3091 729.425 73.6488 729.015 73.8236C728.564 74.0357 728.078 74.1627 727.581 74.1982C726.657 74.2981 726.522 74.3356 726.215 75.3596L726.115 75.7342C726.048 76.1788 726.08 76.2463 726.525 76.2463L736.73 76.3462L740.726 76.2787L743.491 75.9366C746.63 75.3571 749.43 74.0584 751.818 71.9779C753.182 70.7732 754.295 69.3118 755.095 67.677C756.051 65.7664 756.461 63.6809 756.563 61.5679C756.733 60.374 756.663 59.1452 756.463 57.9164V57.9139ZM751.513 62.7592C751.376 64.9446 750.934 67.0601 749.807 68.9708C748.374 71.4634 746.326 73.2042 743.493 73.8161C742.265 74.0659 741.036 74.1907 739.747 74.0209C738.823 73.921 737.939 73.8161 737.085 73.5089C735.549 72.9594 735.002 72.0103 734.969 70.5118L734.934 49.9316C734.934 48.7028 735.484 48.433 736.368 48.3956C737.699 48.2957 739.065 48.3281 740.396 48.463C741.814 48.6001 743.204 48.9364 744.527 49.4621C745.51 49.8718 746.421 50.4368 747.225 51.1354C749.068 52.7089 750.297 54.682 750.971 57.0048C751.521 58.883 751.621 60.7936 751.521 62.7043L751.513 62.7592ZM784.831 66.106C784.831 65.9012 784.831 65.7314 784.796 65.5266C784.489 63.6484 783.497 62.2148 781.964 61.1233C780.975 60.4065 779.848 59.9295 778.687 59.5873C778.482 59.5199 778.312 59.4499 778.108 59.4175C778.143 59.2476 778.245 59.2127 778.347 59.1777C779.029 58.8355 779.679 58.4609 780.258 57.9489C781.317 57.0622 782.006 55.9683 782.374 54.6371C782.578 53.9203 782.578 53.2035 782.511 52.4517C782.455 51.5722 782.202 50.7166 781.771 49.9483C781.339 49.18 780.74 48.5187 780.018 48.0135C778.445 46.8521 776.604 46.375 774.693 46.3401C771.007 46.2726 767.288 46.3401 763.604 46.3401C762.545 46.3401 761.489 46.4075 760.395 46.2402C760.19 46.2052 759.895 46.1403 759.745 46.3775C759.496 46.8221 759.196 47.2642 759.096 47.7762C759.061 48.0159 759.131 48.1508 759.403 48.1858L761.758 48.528C762.683 48.6653 763.332 49.1773 763.397 49.9965C763.464 50.5627 763.497 51.1323 763.497 51.7024L763.429 58.0838L763.394 70.7116C763.394 71.4609 763.294 72.1802 763.155 72.9294C763.121 73.1673 763.019 73.3905 762.862 73.5721C762.705 73.7537 762.499 73.8862 762.268 73.9535C761.586 74.1583 760.937 74.3631 760.22 74.3631C760.028 74.3449 759.836 74.3923 759.675 74.4976C759.514 74.6029 759.394 74.7598 759.333 74.9425C759.196 75.2497 759.083 75.5919 759.026 75.8991C758.959 76.3087 759.061 76.4486 759.471 76.3986C759.778 76.3636 771.042 76.6384 773.157 76.4336C774.421 76.2962 775.655 76.1264 776.911 75.7517C779.059 75.0699 781.042 74.0783 782.611 72.405C783.91 71.0388 784.659 69.4004 784.726 67.4897C784.826 67.0451 784.826 66.603 784.826 66.1235L784.831 66.106ZM768.277 52.1195L768.377 49.3896C768.377 48.8776 768.582 48.6403 769.094 48.5355C769.913 48.3656 770.732 48.4355 771.551 48.468C772.371 48.5354 773.155 48.6378 773.974 48.8776C775.473 49.3222 776.637 50.1764 777.321 51.6075C777.631 52.2582 777.794 52.9695 777.798 53.6905C777.833 54.6471 777.763 55.5687 777.388 56.4878C776.809 57.7516 775.89 58.5708 774.556 58.8106C773.222 59.0503 769.436 58.9479 768.857 58.9479C768.345 58.9479 768.307 58.8805 768.307 58.3685V55.1541C768.227 54.1545 768.215 53.1506 768.272 52.1495L768.277 52.1195ZM779.366 70.4818C778.787 72.0178 777.728 73.0793 776.227 73.6538C775.408 73.961 774.589 74.1533 773.729 74.0983C772.67 74.0634 771.614 74.0983 770.557 73.8935C769.124 73.5863 768.474 72.2201 768.372 71.2311C768.202 69.4903 768.305 67.7145 768.272 66.4182V61.9126C768.272 61.3631 768.34 61.1958 768.921 61.1958L772.131 61.2307L774.316 61.4805C775.852 61.8227 777.251 62.4046 778.345 63.5959C779.232 64.5525 779.711 65.7114 779.813 66.9752C779.913 68.169 779.848 69.3304 779.404 70.4568L779.366 70.4818Z" fill="#C2BFBF"/>
<path d="M692.643 60.1992L693.529 60.3366C694.486 60.3715 695.612 60.0294 695.952 58.6981C696.139 58.0623 696.139 57.3859 695.952 56.75C695.747 56.75 695.645 56.9199 695.542 56.9898C695.03 57.3994 694.451 57.6392 693.836 57.7066C692.608 57.844 691.379 57.774 690.185 57.332L688.512 56.7525C687.344 56.3703 686.116 56.2094 684.89 56.278C683.149 56.4153 681.511 56.9948 679.975 57.814C678.336 58.7006 677.178 60.0319 676.628 61.8426C676.321 62.9016 676.286 63.9905 676.423 65.0845C676.765 67.5771 678.062 69.3179 680.382 70.2395C680.519 70.2745 680.622 70.3394 680.757 70.3769C681.064 70.5467 681.099 70.7191 680.824 70.9563L679.97 71.5358L677.922 72.7996C677.41 73.1068 677.342 73.349 677.512 73.891C677.715 74.5286 678.094 75.0963 678.604 75.5294C679.072 75.9313 679.603 76.2544 680.175 76.486C680.549 76.6558 680.549 76.7358 680.21 77.0355L678.261 78.4341C677.612 78.9337 676.963 79.4332 676.418 80.0726C676.04 80.4778 675.767 80.9701 675.624 81.506C675.481 82.0418 675.472 82.6047 675.599 83.1446C675.853 84.3294 676.473 85.4042 677.372 86.2166C678.26 87.0385 679.339 87.625 680.512 87.9225C682.422 88.472 684.403 88.5019 686.349 88.1273C689.146 87.6153 691.594 86.379 693.517 84.271C694.848 82.8724 695.632 81.2339 695.702 79.2758C695.777 78.1434 695.447 77.0212 694.772 76.1089C694.097 75.1965 693.12 74.5531 692.016 74.2931L690.172 73.951L684.54 73.4514C683.926 73.4165 683.312 73.3141 682.8 73.0069C682.15 72.5973 681.98 71.813 682.39 71.301C682.697 70.9264 683.072 70.6866 683.551 70.6516L684.643 70.5517C686.801 70.3321 688.828 69.4089 690.41 67.9243C691.255 67.1424 691.858 66.1355 692.151 65.0221C692.56 63.5535 692.56 62.0249 692.218 60.5264C692.118 60.1518 692.151 60.1168 692.628 60.1842L692.643 60.1992ZM684.276 77.2003C684.48 77.2353 684.685 77.2003 684.89 77.2003C686.324 77.2678 687.792 77.3702 689.191 77.7498C689.648 77.8847 690.093 78.056 690.522 78.2618C691.888 79.0111 692.4 80.3098 692.228 81.7085C692.023 83.2445 691.169 84.3359 689.838 85.0553C688.951 85.5548 687.96 85.7721 686.936 85.8745C686.561 85.9094 686.219 85.8745 685.844 85.8745C684.65 85.9094 683.489 85.7746 682.363 85.295C681.578 84.9878 680.929 84.5458 680.349 83.9288C679.156 82.735 678.601 80.5496 680.384 78.7738C681.476 77.7748 682.707 77.068 684.276 77.2003V77.2003ZM688.167 66.5506C687.45 68.3588 685.879 68.9058 684.311 68.666C682.877 68.4612 681.818 67.677 681.139 66.3783C680.252 64.6374 680.015 62.8317 680.524 60.951C680.899 59.5523 681.753 58.4933 683.254 58.2536C685.165 57.9114 687.001 58.5957 687.965 60.5064C688.464 61.4305 688.681 62.5544 688.681 64.1579C688.646 64.8073 688.512 65.6939 688.169 66.5481L688.167 66.5506ZM645.163 64.2278C644.856 62.3846 644.174 60.7112 642.911 59.3126C641.032 57.2296 638.645 56.3154 635.947 56.3079C633.592 56.273 631.377 56.9573 629.394 58.1861C627.444 59.3528 626.015 61.2215 625.4 63.4086C624.82 65.3892 624.85 67.4048 625.3 69.4153C626.494 74.8101 630.66 77.1279 635.64 76.7882C637.109 76.6883 638.507 76.2088 639.836 75.5594C641.817 74.6353 643.25 73.1692 644.239 71.2236C645.023 69.6201 645.363 67.9118 645.331 65.9661L645.161 64.2253L645.163 64.2278ZM640.318 71.8055C640.074 72.5735 639.611 73.2537 638.987 73.7629C638.362 74.2721 637.603 74.5883 636.801 74.6728C635.303 74.8776 633.899 74.5029 632.638 73.6138C631.727 72.944 630.99 72.0662 630.487 71.0537C629.089 68.1865 628.849 65.1844 629.563 62.1124C629.793 61.1616 630.291 60.2966 630.997 59.6198C632.261 58.4584 633.727 58.1861 635.368 58.5283C636.941 58.8705 638.133 59.7222 639.114 61.0209C640.096 62.3197 640.548 63.8182 640.82 65.3917C640.957 66.1759 640.957 66.9952 640.99 67.5072C640.99 69.1456 640.853 70.5043 640.34 71.808L640.318 71.8055ZM719.741 64.5026C719.492 62.522 718.752 60.7137 717.351 59.2127C715.508 57.1996 713.118 56.3454 710.458 56.3104C708.17 56.2755 706.055 56.9249 704.109 58.0513C701.924 59.35 700.423 61.1907 699.843 63.6833C699.151 66.4027 699.441 69.2791 700.662 71.8055C701.786 74.1957 703.699 75.7317 706.227 76.4136C709.024 77.1629 711.689 76.8232 714.282 75.5594C716.535 74.468 718.138 72.7621 719.06 70.4393C719.609 69.0732 719.809 67.6071 719.844 65.8987C719.879 65.5915 719.809 65.0445 719.744 64.5001L719.741 64.5026ZM715.031 71.3634C714.482 73.2067 713.325 74.4005 711.38 74.6753C709.946 74.8801 708.582 74.5379 707.351 73.7187C706.292 73.0019 705.543 72.0453 704.996 70.9214C704.381 69.7275 704.039 68.4637 703.904 67.1675C703.699 65.564 703.699 63.9955 704.074 62.3896C704.146 62.0729 704.248 61.7642 704.381 61.468C705.338 59.0778 707.453 57.9863 709.946 58.5333C711.619 58.9079 712.881 59.8321 713.837 61.2307C714.761 62.5969 715.203 64.0979 715.411 65.7264C715.511 66.3758 715.548 67.0576 715.511 67.637C715.511 68.9683 715.411 70.1971 715.011 71.3909L715.031 71.3634Z" fill="#47474A"/>
<g clip-path="url(#clip0)">
<path d="M88.6691 121.683C88.0618 121.683 87.495 121.521 86.9686 121.237L81.5837 118.039C80.7739 117.593 81.1788 117.431 81.4217 117.35C82.5149 116.986 82.7173 116.905 83.851 116.257C83.9725 116.176 84.1344 116.217 84.2559 116.298L88.3857 118.768C88.5476 118.849 88.7501 118.849 88.8716 118.768L105.026 109.415C105.188 109.334 105.269 109.172 105.269 108.969V90.3043C105.269 90.1018 105.188 89.9399 105.026 89.8589L88.8716 80.5466C88.7096 80.4656 88.5072 80.4656 88.3857 80.5466L72.2309 89.8589C72.0689 89.9399 71.9879 90.1423 71.9879 90.3043V108.969C71.9879 109.131 72.0689 109.334 72.2309 109.415L76.6441 111.966C79.0329 113.18 80.531 111.763 80.531 110.346V91.9238C80.531 91.6809 80.7334 91.438 81.0168 91.438H83.0817C83.3247 91.438 83.5676 91.6404 83.5676 91.9238V110.346C83.5676 113.545 81.8266 115.407 78.79 115.407C77.8587 115.407 77.13 115.407 75.0651 114.395L70.8138 111.966C69.7611 111.358 69.1133 110.225 69.1133 109.01V90.3448C69.1133 89.1301 69.7611 87.9965 70.8138 87.3891L86.9686 78.0363C87.9808 77.4695 89.3574 77.4695 90.3696 78.0363L106.524 87.3891C107.577 87.9965 108.225 89.1301 108.225 90.3448V109.01C108.225 110.225 107.577 111.358 106.524 111.966L90.3696 121.318C89.8433 121.561 89.2359 121.683 88.6691 121.683ZM93.6492 108.848C86.5637 108.848 85.1061 105.609 85.1061 102.856C85.1061 102.613 85.3086 102.37 85.592 102.37H87.6974C87.9403 102.37 88.1428 102.532 88.1428 102.775C88.4667 104.921 89.3979 105.973 93.6897 105.973C97.0907 105.973 98.5482 105.204 98.5482 103.382C98.5482 102.329 98.1434 101.56 92.8394 101.034C88.4262 100.588 85.673 99.6166 85.673 96.0941C85.673 92.8146 88.4262 90.8711 93.0418 90.8711C98.2243 90.8711 100.775 92.6526 101.099 96.5395C101.099 96.6609 101.059 96.7824 100.978 96.9039C100.897 96.9848 100.775 97.0658 100.654 97.0658H98.5482C98.3458 97.0658 98.1434 96.9039 98.1029 96.7014C97.617 94.4746 96.3619 93.7458 93.0418 93.7458C89.3169 93.7458 88.8716 95.0414 88.8716 96.0131C88.8716 97.1873 89.3979 97.5517 94.4184 98.1995C99.3985 98.8473 101.747 99.7785 101.747 103.261C101.706 106.823 98.7912 108.848 93.6492 108.848Z" fill="#539E43"/>
<path d="M38.5447 48.6824C38.5447 47.9537 38.1398 47.2654 37.492 46.901L20.3249 37.0218C20.0415 36.8599 19.7176 36.7789 19.3937 36.7384H19.2318C18.9079 36.7384 18.584 36.8599 18.3005 37.0218L1.13351 46.901C0.485693 47.2654 0.0808105 47.9537 0.0808105 48.6824L0.121299 75.2428C0.121299 75.6072 0.32374 75.9715 0.647646 76.1335C0.971552 76.3359 1.37644 76.3359 1.65985 76.1335L11.8629 70.3032C12.5107 69.9388 12.9156 69.2505 12.9156 68.5217V56.0918C12.9156 55.363 13.3205 54.6747 13.9683 54.3103L18.3005 51.8C18.6244 51.5976 18.9888 51.5166 19.3532 51.5166C19.7176 51.5166 20.082 51.5976 20.3654 51.8L24.6977 54.3103C25.3455 54.6747 25.7504 55.363 25.7504 56.0918V68.5217C25.7504 69.2505 26.1553 69.9388 26.8031 70.3032L37.0061 76.1335C37.33 76.3359 37.7349 76.3359 38.0588 76.1335C38.3827 75.9715 38.5852 75.6072 38.5852 75.2428L38.5447 48.6824Z" fill="#333333"/>
<path d="M121.06 12.1215C120.736 11.9595 120.331 11.9595 120.048 12.1215C119.724 12.3239 119.521 12.6478 119.521 13.0122V39.3296C119.521 39.5725 119.4 39.8154 119.157 39.9774C118.914 40.0989 118.671 40.0989 118.428 39.9774L114.136 37.5076C113.489 37.1432 112.719 37.1432 112.072 37.5076L94.9045 47.4272C94.2567 47.7916 93.8518 48.4799 93.8518 49.2087V69.0075C93.8518 69.7363 94.2567 70.4246 94.9045 70.789L112.072 80.7086C112.719 81.073 113.489 81.073 114.136 80.7086L131.303 70.789C131.951 70.4246 132.356 69.7363 132.356 69.0075V19.6523C132.356 18.883 131.951 18.1947 131.303 17.8303L121.06 12.1215ZM119.481 62.4889C119.481 62.6913 119.4 62.8533 119.238 62.9342L113.367 66.3353C113.205 66.4162 113.003 66.4162 112.841 66.3353L106.97 62.9342C106.808 62.8533 106.727 62.6508 106.727 62.4889V55.6868C106.727 55.4844 106.808 55.3225 106.97 55.2415L112.841 51.8405C113.003 51.7595 113.205 51.7595 113.367 51.8405L119.238 55.2415C119.4 55.3225 119.481 55.5249 119.481 55.6868V62.4889Z" fill="#333333"/>
<path d="M178.189 55.5248C178.837 55.1604 179.201 54.4721 179.201 53.7434V48.9253C179.201 48.1965 178.796 47.5082 178.189 47.1438L161.143 37.2646C160.495 36.9002 159.726 36.9002 159.078 37.2646L141.911 47.1843C141.264 47.5487 140.859 48.237 140.859 48.9657V68.7645C140.859 69.4933 141.264 70.1816 141.911 70.546L158.957 80.2632C159.605 80.6276 160.374 80.6276 160.981 80.2632L171.306 74.5138C171.63 74.3519 171.832 73.9875 171.832 73.6231C171.832 73.2587 171.63 72.8943 171.306 72.7324L154.058 62.8127C153.734 62.6103 153.531 62.2864 153.531 61.922V55.7273C153.531 55.3629 153.734 54.9985 154.058 54.8365L159.443 51.7594C159.767 51.557 160.172 51.557 160.495 51.7594L165.88 54.8365C166.204 55.039 166.407 55.3629 166.407 55.7273V60.5859C166.407 60.9503 166.609 61.3147 166.933 61.4766C167.257 61.6791 167.662 61.6791 167.986 61.4766L178.189 55.5248Z" fill="#333333"/>
<path d="M159.848 54.5936C159.969 54.5126 160.131 54.5126 160.253 54.5936L163.532 56.4965C163.654 56.5775 163.735 56.699 163.735 56.8609V60.6668C163.735 60.8288 163.654 60.9502 163.532 61.0312L160.253 62.9342C160.131 63.0151 159.969 63.0151 159.848 62.9342L156.568 61.0312C156.447 60.9502 156.366 60.8288 156.366 60.6668V56.8609C156.366 56.699 156.447 56.5775 156.568 56.4965L159.848 54.5936Z" fill="#539E43"/>
<mask id="mask0" mask-type="alpha" maskUnits="userSpaceOnUse" x="47" y="37" width="39" height="44">
<path d="M67.2508 37.3457C66.603 36.9813 65.8338 36.9813 65.1859 37.3457L48.1404 47.1843C47.4926 47.5487 47.1282 48.237 47.1282 48.9658V68.6836C47.1282 69.4124 47.5331 70.1007 48.1404 70.4651L65.1859 80.3037C65.8338 80.6681 66.603 80.6681 67.2508 80.3037L84.2964 70.4651C84.9442 70.1007 85.3086 69.4124 85.3086 68.6836V48.9658C85.3086 48.237 84.9037 47.5487 84.2964 47.1843L67.2508 37.3457Z" fill="white"/>
</mask>
<g mask="url(#mask0)">
<path d="M67.2508 37.3457C66.603 36.9813 65.8338 36.9813 65.1859 37.3457L48.1404 47.1843C47.4926 47.5487 47.1282 48.237 47.1282 48.9658V68.6836C47.1282 69.4124 47.5331 70.1007 48.1404 70.4651L65.1859 80.3037C65.8338 80.6681 66.603 80.6681 67.2508 80.3037L84.2964 70.4651C84.9442 70.1007 85.3086 69.4124 85.3086 68.6836V48.9658C85.3086 48.237 84.9037 47.5487 84.2964 47.1843L67.2508 37.3457Z" fill="url(#paint0_linear)"/>
<path d="M84.337 47.1844L67.2105 37.3458C67.0485 37.2648 66.8461 37.1838 66.6841 37.1433L47.4927 70.0198C47.6546 70.2222 47.8571 70.3842 48.0595 70.5056L65.186 80.3443C65.6719 80.6277 66.2387 80.7087 66.7651 80.5467L84.7824 47.5893C84.6609 47.4273 84.499 47.3059 84.337 47.1844Z" fill="url(#paint1_linear)"/>
<path fill-rule="evenodd" clip-rule="evenodd" d="M84.3776 70.4651C84.8635 70.1817 85.2279 69.6958 85.3898 69.1695L66.6033 37.1028C66.1174 37.0218 65.5911 37.0623 65.1457 37.3457L48.1406 47.1439L66.4818 80.5872C66.7247 80.5467 67.0082 80.4657 67.2511 80.3442L84.3776 70.4651Z" fill="url(#paint2_linear)"/>
<path fill-rule="evenodd" clip-rule="evenodd" d="M84.3775 70.4651L67.2915 80.3038C67.0486 80.4252 66.8056 80.5062 66.5222 80.5467L66.8461 81.154L85.7946 70.1817V69.9388L85.3088 69.129C85.2278 69.6959 84.8634 70.1817 84.3775 70.4651Z" fill="url(#paint3_linear)"/>
<path fill-rule="evenodd" clip-rule="evenodd" d="M84.3775 70.4651L67.2915 80.3038C67.0486 80.4252 66.8056 80.5062 66.5222 80.5467L66.8461 81.154L85.7946 70.1817V69.9388L85.3088 69.129C85.2278 69.6959 84.8634 70.1817 84.3775 70.4651Z" fill="url(#paint4_linear)"/>
</g>
</g>
<defs>
<linearGradient id="paint0_linear" x1="73.1628" y1="44.68" x2="54.4785" y2="74.0373" gradientUnits="userSpaceOnUse">
<stop stop-color="#41873F"/>
<stop offset="0.3288" stop-color="#418B3D"/>
<stop offset="0.6352" stop-color="#419637"/>
<stop offset="0.9319" stop-color="#3FA92D"/>
<stop offset="1" stop-color="#3FAE2A"/>
</linearGradient>
<linearGradient id="paint1_linear" x1="63.6304" y1="61.134" x2="110.422" y2="35.7121" gradientUnits="userSpaceOnUse">
<stop offset="0.1376" stop-color="#41873F"/>
<stop offset="0.4032" stop-color="#54A044"/>
<stop offset="0.7136" stop-color="#66B848"/>
<stop offset="0.9081" stop-color="#6CC04A"/>
</linearGradient>
<linearGradient id="paint2_linear" x1="46.5058" y1="58.8253" x2="85.9483" y2="58.8253" gradientUnits="userSpaceOnUse">
<stop offset="0.0919165" stop-color="#6CC04A"/>
<stop offset="0.2864" stop-color="#66B848"/>
<stop offset="0.5968" stop-color="#54A044"/>
<stop offset="0.8624" stop-color="#41873F"/>
</linearGradient>
<linearGradient id="paint3_linear" x1="46.5057" y1="75.1747" x2="85.9482" y2="75.1747" gradientUnits="userSpaceOnUse">
<stop offset="0.0919165" stop-color="#6CC04A"/>
<stop offset="0.2864" stop-color="#66B848"/>
<stop offset="0.5968" stop-color="#54A044"/>
<stop offset="0.8624" stop-color="#41873F"/>
</linearGradient>
<linearGradient id="paint4_linear" x1="91.6945" y1="43.7479" x2="81.7022" y2="96.1075" gradientUnits="userSpaceOnUse">
<stop stop-color="#41873F"/>
<stop offset="0.3288" stop-color="#418B3D"/>
<stop offset="0.6352" stop-color="#419637"/>
<stop offset="0.9319" stop-color="#3FA92D"/>
<stop offset="1" stop-color="#3FAE2A"/>
</linearGradient>
<clipPath id="clip0">
<rect width="179.363" height="110" fill="white" transform="translate(0 12)"/>
</clipPath>
</defs>
</svg>
