<svg width="100" height="100" viewBox="0 0 100 100" fill="none" xmlns="http://www.w3.org/2000/svg">
<path d="M31.6821 29.2969C30.4926 34.9377 29.7502 41.1232 29.5631 47.0703H47.0703V29.2969H31.6821Z" fill="#2965F1"/>
<path d="M4.46992 29.2969C2.00957 34.7131 0.36543 40.8344 0 47.0703H23.708C23.8807 41.0664 24.5445 34.9182 25.6799 29.2969H4.46992Z" fill="#2965F1"/>
<path d="M29.5631 52.9297C29.7502 58.8768 30.4926 65.0623 31.6821 70.7031H47.0703V52.9297H29.5631Z" fill="#2965F1"/>
<path d="M33.0931 23.4375H47.0703V0C41.3396 2.35918 36.29 11.9998 33.0931 23.4375Z" fill="#2965F1"/>
<path d="M33.0931 76.5625C36.29 88.0002 41.3396 97.6408 47.0703 100V76.5625H33.0931Z" fill="#2965F1"/>
<path d="M23.708 52.9297H0C0.36543 59.1656 2.00957 65.2869 4.46992 70.7031H25.6799C24.5443 65.0818 23.8807 58.9336 23.708 52.9297Z" fill="#2965F1"/>
<path d="M52.9297 0V23.4375H66.9068C63.71 11.9998 58.6604 2.35918 52.9297 0Z" fill="#2965F1"/>
<path d="M68.318 29.2969H52.9297V47.0703H70.4369C70.2498 41.1232 69.5074 34.9377 68.318 29.2969Z" fill="#2965F1"/>
<path d="M72.9225 76.5625C70.5614 85.3437 67.1088 93.6457 62.9104 98.9139C75.1846 95.6107 85.7733 87.0775 92.3707 76.5625H72.9225Z" fill="#2965F1"/>
<path d="M7.62927 23.4375H27.0775C29.4386 14.6563 32.8912 6.35435 37.0896 1.08618C24.8154 4.38931 14.2267 12.9225 7.62927 23.4375Z" fill="#2965F1"/>
<path d="M62.9104 1.08618C67.109 6.35435 70.5616 14.6563 72.9225 23.4375H92.3707C85.7733 12.9225 75.1846 4.38931 62.9104 1.08618Z" fill="#2965F1"/>
<path d="M27.0775 76.5625H7.62927C14.2267 87.0775 24.8154 95.6107 37.0896 98.9139C32.891 93.6457 29.4385 85.3437 27.0775 76.5625Z" fill="#2965F1"/>
<path d="M95.53 29.2969H74.3201C75.4556 34.9182 76.1193 41.0664 76.2919 47.0703H99.9999C99.6345 40.8344 97.9904 34.7131 95.53 29.2969Z" fill="#2965F1"/>
<path d="M52.9297 76.5625V100C58.6604 97.6408 63.71 88.0002 66.9068 76.5625H52.9297Z" fill="#2965F1"/>
<path d="M52.9297 52.9297V70.7031H68.318C69.5074 65.0623 70.2498 58.8768 70.4369 52.9297H52.9297Z" fill="#2965F1"/>
<path d="M76.2919 52.9297C76.1193 58.9336 75.4556 65.0818 74.3201 70.7031H95.53C97.9906 65.2869 99.6345 59.1656 99.9999 52.9297H76.2919Z" fill="#2965F1"/>
</svg>
