<svg width="100" height="100" viewBox="0 0 100 100" fill="none" xmlns="http://www.w3.org/2000/svg">
<path d="M0 100V0H100V100H0Z" fill="#FFD600"/>
<path d="M65.3834 74.8528C67.3056 77.975 69.3945 80.9667 73.8195 80.9667C77.5362 80.9667 79.4862 79.1195 79.4862 76.5639C79.4862 73.5056 77.4695 72.4195 73.3806 70.6389L71.1389 69.6833C64.6695 66.9389 60.3667 63.5 60.3667 56.2361C60.3667 49.5417 65.4917 44.4472 73.5 44.4472C79.2028 44.4472 83.3 46.4222 86.2556 51.5945L79.2723 56.0583C77.7362 53.3139 76.075 52.2333 73.5 52.2333C70.8723 52.2333 69.2084 53.8917 69.2084 56.0583C69.2084 58.7361 70.8751 59.8195 74.7223 61.4778L76.9639 62.4333C84.5889 65.6806 88.8889 68.9972 88.8889 76.4528C88.8889 84.4861 82.5445 88.8889 74.0278 88.8889C65.6973 88.8889 60.9667 84.7083 58.3334 79.5333L65.3834 74.8528ZM33.2 75.0806C34.6056 77.5972 36.7417 79.5333 39.8139 79.5333C42.7528 79.5333 44.4445 78.3722 44.4445 73.8583V44.4445H53.7028V75.2806C53.7028 84.6334 48.2778 88.8889 40.3556 88.8889C33.1973 88.8889 28.0306 84.0389 25.925 79.5333L33.2 75.0806Z" fill="#000001"/>
</svg>
