<svg width="259" height="100" viewBox="0 0 259 100" fill="none" xmlns="http://www.w3.org/2000/svg">
<path d="M22.1532 0.269897L24.8193 5.28405C25.3997 6.18852 26.0754 7.02819 26.8347 7.78867C29.0678 10.0218 31.1934 12.3626 33.0963 14.8696C37.6164 20.8059 40.6664 27.3977 42.8457 34.5349C44.1519 38.8935 44.8612 43.3598 44.915 47.8798C45.1351 61.3887 40.5026 72.9897 31.1347 82.6316C29.6168 84.1599 27.9775 85.5628 26.233 86.8263C25.3036 86.8263 24.8706 86.0926 24.4891 85.4639C23.7553 84.241 23.3444 82.9031 23.1267 81.5431C22.7989 79.9092 22.5813 78.2754 22.6913 76.5852V75.8221C22.6375 75.6582 21.8206 0.653909 22.1459 0.272344L22.1532 0.269897Z" fill="#599636"/>
<path d="M22.1532 0.108259C22.0431 -0.111874 21.9331 0.0544499 21.8255 0.162071C21.8793 1.25051 21.4977 2.23132 20.896 3.15833C20.2429 4.08778 19.3698 4.79221 18.499 5.55534C13.6512 9.7501 9.84042 14.8156 6.78791 20.4804C2.75702 28.1068 0.633959 36.2762 0.0371529 44.8834C-0.231899 47.9897 1.01552 58.9377 1.99879 62.0954C4.66485 70.4849 9.45886 77.5096 15.696 83.6097C17.2222 85.0773 18.8561 86.4421 20.5438 87.7482C21.033 87.7482 21.0892 87.3129 21.1969 86.9851C21.4115 86.2895 21.575 85.5791 21.686 84.8596C22.1752 82.1373 22.4492 79.4125 22.7745 76.6902L22.1752 0.108259H22.1532Z" fill="#6CAC48"/>
<path d="M24.8263 90.1478C24.9364 88.8955 25.5601 87.8609 26.1887 86.8262C25.5356 86.5572 25.044 86.0093 24.6624 85.4076C24.3347 84.8622 24.0632 84.1846 23.8455 83.6099C23.0824 81.3229 22.916 78.9259 22.7008 76.5827V75.1641C22.4317 75.3842 22.373 77.2333 22.373 77.5073C22.2092 80.0119 21.8839 82.4652 21.3947 84.8597C21.2308 85.8381 21.1256 86.8214 20.5239 87.6921C20.5239 87.8022 20.5239 87.9122 20.5777 88.0737C21.5561 90.9599 21.8301 93.9023 21.9964 96.8986V97.987C21.9964 99.2931 21.9426 99.0216 23.031 99.4546C23.4664 99.6184 23.9605 99.6747 24.3934 100C24.7211 100 24.7749 99.731 24.7749 99.5108L24.6111 97.7131V92.6989C24.5573 91.8282 24.7211 90.955 24.8312 90.138L24.8263 90.1478Z" fill="#C2BFBF"/>
<path d="M66.1892 67.3673V72.5548C66.1834 72.7602 66.1951 72.9658 66.2242 73.1692C66.2916 73.7836 66.6688 74.1583 67.2232 74.3306C67.7406 74.4668 68.2662 74.5694 68.7967 74.6378C69.1039 74.6728 69.2063 74.8076 69.2413 75.1373C69.2763 76.2987 69.1739 76.4361 68.0474 76.3661C65.42 76.2288 62.79 76.1963 60.1625 76.3661H59.9128C59.0936 76.4011 59.0261 76.3312 59.0261 75.512C59.0261 75.3746 59.0611 75.2048 59.0611 75.0674C59.0611 74.8176 59.2309 74.6927 59.4707 74.6927C60.0202 74.6253 60.5297 74.4879 61.0442 74.3855C61.761 74.2157 62.1681 73.7711 62.238 73.0543C62.3379 72.2701 62.3379 71.4509 62.3379 70.6641L62.3729 61.5179C62.3842 61.2526 62.3197 60.9896 62.187 60.7597C62.0543 60.5297 61.8589 60.3422 61.6236 60.2192C61.006 59.8761 60.3527 59.6014 59.6755 59.4C59.4707 59.3325 59.2659 59.3001 59.0961 59.1952C58.5965 58.9554 58.5841 58.5133 59.0611 58.2386C59.2309 58.1387 59.4357 58.0687 59.6405 58.0338C61.7119 57.7281 63.747 57.2134 65.7147 56.4978C66.1243 56.3604 66.2267 56.3979 66.2642 56.805C66.2991 57.0547 66.2642 57.3544 66.2292 57.5892C66.1618 58.0338 66.1618 58.4759 66.1618 58.888C66.1618 59.0578 66.1967 59.2301 66.3666 59.3325C66.5364 59.4349 66.7087 59.3325 66.8661 59.2326C67.5829 58.6832 68.2997 58.1736 69.0839 57.7341C70.2079 57.1197 71.4067 56.5727 72.7055 56.4028C74.2789 56.198 75.6401 56.6077 76.8365 57.6317C77.3311 58.0744 77.7668 58.5789 78.1327 59.1327C78.4749 59.6322 78.5074 59.6447 78.9519 59.3026C80.2507 58.346 81.6144 57.4943 83.083 56.8799C84.619 56.2305 86.19 56.1306 87.7585 56.6751C89.3619 57.2545 90.4559 58.3809 91.1052 59.917C91.6547 61.1458 91.8895 62.4146 91.8895 63.7383V72.8845C91.8895 73.4989 92.1392 73.8835 92.7437 74.1832C93.393 74.433 94.1098 74.5579 94.7917 74.6952C95.2363 74.7951 95.2363 74.7951 95.2363 75.2447C95.1688 76.3686 95.0664 76.4386 93.9725 76.3686C91.2331 76.2151 88.4873 76.2151 85.7479 76.3686C85.1984 76.4036 85.1984 76.4036 85.1685 75.8566V75.6868C85.1335 74.7627 85.1335 74.7627 86.0226 74.5629L86.9093 74.3231C87.2097 74.2524 87.4775 74.0826 87.6696 73.8411C87.8617 73.5996 87.9669 73.3005 87.9683 72.9919L88.0682 70.4318L88.0007 63.7433C87.9745 63.1461 87.8479 62.5576 87.6261 62.0025C86.7719 59.9195 84.8962 59.1702 83.0855 59.375C81.7193 59.5124 80.5254 60.0568 79.399 60.8436C79.1592 61.0134 78.9894 61.2182 79.0244 61.5604C79.3316 63.7458 79.1243 65.9312 79.1617 68.1141V72.8595C79.1617 73.7137 79.5039 74.1233 80.3231 74.3281L81.8966 74.6703C82.1364 74.7052 82.2712 74.8076 82.2712 75.0799V75.3296C82.2363 76.2862 82.1713 76.3287 81.2123 76.3187C78.4824 76.1813 75.75 76.2188 73.0551 76.3187C72.131 76.3536 72.0561 76.2512 72.0985 75.3196C72.1335 74.7702 72.1984 74.7402 72.713 74.6378L73.8369 74.433C74.8359 74.2282 75.2031 73.8536 75.2705 72.7946L75.3704 70.5068L75.303 63.6459C75.2355 62.7917 75.0532 61.9725 74.5861 61.1882C73.9043 59.9245 72.8378 59.2776 71.3767 59.2076C69.9082 59.1077 68.6119 59.6522 67.3806 60.3316C66.5264 60.8311 66.1518 61.423 66.2192 62.4146V67.3973L66.1892 67.3673ZM130.495 67.5746V72.3875C130.5 72.7297 130.523 73.0715 130.562 73.4115C130.577 73.6381 130.665 73.8539 130.812 74.0264C130.96 74.1989 131.16 74.3188 131.381 74.3681C131.97 74.5397 132.577 74.6428 133.19 74.6753C133.532 74.7102 133.599 74.8451 133.634 75.1198V75.3596C133.599 76.5534 133.464 76.6908 132.303 76.6234C129.706 76.4535 127.116 76.486 124.521 76.6234L123.522 76.6583C123.317 76.6583 123.272 76.5584 123.214 76.4186C123.115 75.9459 123.115 75.4576 123.214 74.985C123.249 74.7802 123.384 74.7352 123.589 74.6778C124.088 74.6103 124.513 74.5079 124.988 74.428C125.842 74.2232 126.149 73.8785 126.181 72.9944L126.281 70.1271V61.7302C126.281 61.1158 126.042 60.7412 125.497 60.4664C124.883 60.1243 124.233 59.887 123.549 59.6472C123.344 59.5798 123.139 59.5099 122.97 59.4075C122.525 59.1003 122.47 58.6582 122.902 58.316C123.096 58.1567 123.334 58.0608 123.584 58.0413C125.769 57.6991 127.885 57.2221 129.933 56.4028C130.173 56.3029 130.275 56.3679 130.377 56.5727C130.48 56.7775 130.515 57.0173 130.477 57.2545L130.377 58.858C130.377 59.0628 130.278 59.3575 130.445 59.4374C130.65 59.5748 130.787 59.2676 130.957 59.1877C131.965 58.3423 133.078 57.6312 134.269 57.0722C135.328 56.5727 136.417 56.253 137.648 56.3229C139.936 56.4603 141.574 57.6217 142.631 59.6347C143.18 60.6937 143.415 61.8526 143.517 63.0489L143.617 65.5465L143.652 73.0893C143.687 73.6687 143.892 74.0459 144.471 74.2507C145.072 74.4509 145.689 74.5996 146.315 74.6952C146.864 74.7627 146.894 74.8651 146.929 75.3771V75.5469C146.862 76.7083 146.792 76.7408 145.63 76.6708C143.084 76.5343 140.532 76.5343 137.985 76.6708C137.643 76.7058 137.303 76.6708 136.986 76.7058C136.781 76.7058 136.644 76.6708 136.611 76.466C136.544 76.0215 136.474 75.5794 136.576 75.0999C136.611 74.8951 136.714 74.7926 136.951 74.7577L138.525 74.5079C139.074 74.3705 139.379 74.0084 139.449 73.5089L139.516 72.5523L139.481 65.4192C139.481 64.6 139.446 63.7807 139.276 62.9615C138.867 61.2132 137.536 59.9644 135.73 59.7896C134.156 59.6198 132.733 60.0294 131.429 60.881C130.78 61.2906 130.505 61.8701 130.505 62.5869V67.7419C130.505 67.642 130.505 67.642 130.54 67.642L130.495 67.5746Z" fill="#47474A"/>
<path d="M230.463 57.9139C230.089 55.4213 229.165 53.2035 227.561 51.2578C226.164 49.539 224.356 48.2006 222.304 47.3666C220.156 46.4799 217.866 46.2052 215.545 46.1378C214.589 46.1028 201.551 46.3076 200.595 46.1378C200.355 46.1028 200.185 46.1727 200.045 46.3775C199.875 46.6273 199.703 46.8895 199.601 47.1618C199.191 48.0859 199.191 48.0159 200.18 48.1508C200.999 48.2882 201.784 48.3556 202.57 48.5954C203.287 48.8352 203.799 49.2448 203.969 50.029C204.036 50.4037 204.106 62.4171 204.106 68.0167L203.969 72.0128C203.934 72.32 203.902 72.6272 203.799 72.8995C203.662 73.3091 203.425 73.6488 203.015 73.8236C202.564 74.0357 202.078 74.1627 201.581 74.1982C200.657 74.2981 200.522 74.3356 200.215 75.3596L200.115 75.7342C200.048 76.1788 200.08 76.2463 200.525 76.2463L210.73 76.3462L214.726 76.2787L217.491 75.9366C220.63 75.3571 223.43 74.0584 225.818 71.9779C227.182 70.7732 228.295 69.3118 229.095 67.677C230.051 65.7664 230.461 63.6809 230.563 61.5679C230.733 60.374 230.663 59.1452 230.463 57.9164V57.9139ZM225.513 62.7592C225.376 64.9446 224.934 67.0601 223.807 68.9708C222.374 71.4634 220.326 73.2042 217.493 73.8161C216.265 74.0659 215.036 74.1907 213.747 74.0209C212.823 73.921 211.939 73.8161 211.085 73.5089C209.549 72.9594 209.002 72.0103 208.969 70.5118L208.934 49.9316C208.934 48.7028 209.484 48.433 210.368 48.3956C211.699 48.2957 213.065 48.3281 214.396 48.463C215.814 48.6001 217.204 48.9364 218.527 49.4621C219.51 49.8718 220.421 50.4368 221.225 51.1354C223.068 52.7089 224.297 54.682 224.971 57.0048C225.521 58.883 225.621 60.7936 225.521 62.7043L225.513 62.7592ZM258.831 66.106C258.831 65.9012 258.831 65.7314 258.796 65.5266C258.489 63.6484 257.497 62.2148 255.964 61.1233C254.975 60.4065 253.848 59.9295 252.687 59.5873C252.482 59.5199 252.312 59.4499 252.108 59.4175C252.143 59.2476 252.245 59.2127 252.347 59.1777C253.029 58.8355 253.679 58.4609 254.258 57.9489C255.317 57.0622 256.006 55.9683 256.374 54.6371C256.578 53.9203 256.578 53.2035 256.511 52.4517C256.455 51.5722 256.202 50.7166 255.771 49.9483C255.339 49.18 254.74 48.5187 254.018 48.0135C252.445 46.8521 250.604 46.375 248.693 46.3401C245.007 46.2726 241.288 46.3401 237.604 46.3401C236.545 46.3401 235.489 46.4075 234.395 46.2402C234.19 46.2052 233.895 46.1403 233.745 46.3775C233.496 46.8221 233.196 47.2642 233.096 47.7762C233.061 48.0159 233.131 48.1508 233.403 48.1858L235.758 48.528C236.683 48.6653 237.332 49.1773 237.397 49.9965C237.464 50.5627 237.497 51.1323 237.497 51.7024L237.429 58.0838L237.394 70.7116C237.394 71.4609 237.294 72.1802 237.155 72.9294C237.121 73.1673 237.019 73.3905 236.862 73.5721C236.705 73.7537 236.499 73.8862 236.268 73.9535C235.586 74.1583 234.937 74.3631 234.22 74.3631C234.028 74.3449 233.836 74.3923 233.675 74.4976C233.514 74.6029 233.394 74.7598 233.333 74.9425C233.196 75.2497 233.083 75.5919 233.026 75.8991C232.959 76.3087 233.061 76.4486 233.471 76.3986C233.778 76.3636 245.042 76.6384 247.157 76.4336C248.421 76.2962 249.655 76.1264 250.911 75.7517C253.059 75.0699 255.042 74.0783 256.611 72.405C257.91 71.0388 258.659 69.4004 258.726 67.4897C258.826 67.0451 258.826 66.603 258.826 66.1235L258.831 66.106ZM242.277 52.1195L242.377 49.3896C242.377 48.8776 242.582 48.6403 243.094 48.5355C243.913 48.3656 244.732 48.4355 245.551 48.468C246.371 48.5354 247.155 48.6378 247.974 48.8776C249.473 49.3222 250.637 50.1764 251.321 51.6075C251.631 52.2582 251.794 52.9695 251.798 53.6905C251.833 54.6471 251.763 55.5687 251.388 56.4878C250.809 57.7516 249.89 58.5708 248.556 58.8106C247.222 59.0503 243.436 58.9479 242.857 58.9479C242.345 58.9479 242.307 58.8805 242.307 58.3685V55.1541C242.227 54.1545 242.215 53.1506 242.272 52.1495L242.277 52.1195ZM253.366 70.4818C252.787 72.0178 251.728 73.0793 250.227 73.6538C249.408 73.961 248.589 74.1533 247.729 74.0983C246.67 74.0634 245.614 74.0983 244.557 73.8935C243.124 73.5863 242.474 72.2201 242.372 71.2311C242.202 69.4903 242.305 67.7145 242.272 66.4182V61.9126C242.272 61.3631 242.34 61.1958 242.921 61.1958L246.131 61.2307L248.316 61.4805C249.852 61.8227 251.251 62.4046 252.345 63.5959C253.232 64.5525 253.711 65.7114 253.813 66.9752C253.913 68.169 253.848 69.3304 253.404 70.4568L253.366 70.4818Z" fill="#C2BFBF"/>
<path d="M166.643 60.1992L167.529 60.3366C168.486 60.3715 169.612 60.0294 169.952 58.6981C170.139 58.0623 170.139 57.3859 169.952 56.75C169.747 56.75 169.645 56.9199 169.542 56.9898C169.03 57.3994 168.451 57.6392 167.836 57.7066C166.608 57.844 165.379 57.774 164.185 57.332L162.512 56.7525C161.344 56.3703 160.116 56.2094 158.89 56.278C157.149 56.4153 155.511 56.9948 153.975 57.814C152.336 58.7006 151.178 60.0319 150.628 61.8426C150.321 62.9016 150.286 63.9905 150.423 65.0845C150.765 67.5771 152.062 69.3179 154.382 70.2395C154.519 70.2745 154.622 70.3394 154.757 70.3769C155.064 70.5467 155.099 70.7191 154.824 70.9563L153.97 71.5358L151.922 72.7996C151.41 73.1068 151.342 73.349 151.512 73.891C151.715 74.5286 152.094 75.0963 152.604 75.5294C153.072 75.9313 153.603 76.2544 154.175 76.486C154.549 76.6558 154.549 76.7358 154.21 77.0355L152.261 78.4341C151.612 78.9337 150.963 79.4332 150.418 80.0726C150.04 80.4778 149.767 80.9701 149.624 81.506C149.481 82.0418 149.472 82.6047 149.599 83.1446C149.853 84.3294 150.473 85.4042 151.372 86.2166C152.26 87.0385 153.339 87.625 154.512 87.9225C156.422 88.472 158.403 88.5019 160.349 88.1273C163.146 87.6153 165.594 86.379 167.517 84.271C168.848 82.8724 169.632 81.2339 169.702 79.2758C169.777 78.1434 169.447 77.0212 168.772 76.1089C168.097 75.1965 167.12 74.5531 166.016 74.2931L164.172 73.951L158.54 73.4514C157.926 73.4165 157.312 73.3141 156.8 73.0069C156.15 72.5973 155.98 71.813 156.39 71.301C156.697 70.9264 157.072 70.6866 157.551 70.6516L158.643 70.5517C160.801 70.3321 162.828 69.4089 164.41 67.9243C165.255 67.1424 165.858 66.1355 166.151 65.0221C166.56 63.5535 166.56 62.0249 166.218 60.5264C166.118 60.1518 166.151 60.1168 166.628 60.1842L166.643 60.1992ZM158.276 77.2003C158.48 77.2353 158.685 77.2003 158.89 77.2003C160.324 77.2678 161.792 77.3702 163.191 77.7498C163.648 77.8847 164.093 78.056 164.522 78.2618C165.888 79.0111 166.4 80.3098 166.228 81.7085C166.023 83.2445 165.169 84.3359 163.838 85.0553C162.951 85.5548 161.96 85.7721 160.936 85.8745C160.561 85.9094 160.219 85.8745 159.844 85.8745C158.65 85.9094 157.489 85.7746 156.363 85.295C155.578 84.9878 154.929 84.5458 154.349 83.9288C153.156 82.735 152.601 80.5496 154.384 78.7738C155.476 77.7748 156.707 77.068 158.276 77.2003V77.2003ZM162.167 66.5506C161.45 68.3588 159.879 68.9058 158.311 68.666C156.877 68.4612 155.818 67.677 155.139 66.3783C154.252 64.6374 154.015 62.8317 154.524 60.951C154.899 59.5523 155.753 58.4933 157.254 58.2536C159.165 57.9114 161.001 58.5957 161.965 60.5064C162.464 61.4305 162.681 62.5544 162.681 64.1579C162.646 64.8073 162.512 65.6939 162.169 66.5481L162.167 66.5506ZM119.163 64.2278C118.856 62.3846 118.174 60.7112 116.911 59.3126C115.032 57.2296 112.645 56.3154 109.947 56.3079C107.592 56.273 105.377 56.9573 103.394 58.1861C101.444 59.3528 100.015 61.2215 99.3999 63.4086C98.8205 65.3892 98.8504 67.4048 99.3 69.4153C100.494 74.8101 104.66 77.1279 109.64 76.7882C111.109 76.6883 112.507 76.2088 113.836 75.5594C115.817 74.6353 117.25 73.1692 118.239 71.2236C119.023 69.6201 119.363 67.9118 119.331 65.9661L119.161 64.2253L119.163 64.2278ZM114.318 71.8055C114.074 72.5735 113.611 73.2537 112.987 73.7629C112.362 74.2721 111.603 74.5883 110.801 74.6728C109.303 74.8776 107.899 74.5029 106.638 73.6138C105.727 72.944 104.99 72.0662 104.487 71.0537C103.089 68.1865 102.849 65.1844 103.563 62.1124C103.793 61.1616 104.291 60.2966 104.997 59.6198C106.261 58.4584 107.727 58.1861 109.368 58.5283C110.941 58.8705 112.133 59.7222 113.114 61.0209C114.096 62.3197 114.548 63.8182 114.82 65.3917C114.957 66.1759 114.957 66.9952 114.99 67.5072C114.99 69.1456 114.853 70.5043 114.34 71.808L114.318 71.8055ZM193.741 64.5026C193.492 62.522 192.752 60.7137 191.351 59.2127C189.508 57.1996 187.118 56.3454 184.458 56.3104C182.17 56.2755 180.055 56.9249 178.109 58.0513C175.924 59.35 174.423 61.1907 173.843 63.6833C173.151 66.4027 173.441 69.2791 174.662 71.8055C175.786 74.1957 177.699 75.7317 180.227 76.4136C183.024 77.1629 185.689 76.8232 188.282 75.5594C190.535 74.468 192.138 72.7621 193.06 70.4393C193.609 69.0732 193.809 67.6071 193.844 65.8987C193.879 65.5915 193.809 65.0445 193.744 64.5001L193.741 64.5026ZM189.031 71.3634C188.482 73.2067 187.325 74.4005 185.38 74.6753C183.946 74.8801 182.582 74.5379 181.351 73.7187C180.292 73.0019 179.543 72.0453 178.996 70.9214C178.381 69.7275 178.039 68.4637 177.904 67.1675C177.699 65.564 177.699 63.9955 178.074 62.3896C178.146 62.0729 178.248 61.7642 178.381 61.468C179.338 59.0778 181.453 57.9863 183.946 58.5333C185.619 58.9079 186.881 59.8321 187.837 61.2307C188.761 62.5969 189.203 64.0979 189.411 65.7264C189.511 66.3758 189.548 67.0576 189.511 67.637C189.511 68.9683 189.411 70.1971 189.011 71.3909L189.031 71.3634Z" fill="#47474A"/>
</svg>
