<svg width="130" height="83" viewBox="0 0 130 83" fill="none" xmlns="http://www.w3.org/2000/svg">
<path d="M89.3259 0C88.6675 0 88.0645 0.52747 88.0645 1.26134V24.3095L82.839 21.2626C82.5119 21.0697 82.1432 20.9759 81.7742 20.9759C81.4052 20.9759 81.0365 21.0697 80.7094 21.2626L68.1533 28.5849C67.4992 28.9623 67.0968 29.6608 67.0968 30.4114V45.0725C67.0968 45.8273 67.4992 46.5215 68.1533 46.8989L80.7094 54.2213C81.0365 54.4142 81.4052 54.5079 81.7742 54.5079C82.1432 54.5079 82.5119 54.4142 82.839 54.2213L95.395 46.8989C96.0492 46.5215 96.4516 45.8231 96.4516 45.0725V37.7419V30.4114V5.16003C96.4516 4.41358 96.053 3.72734 95.4114 3.34992L89.9483 0.172001C89.7428 0.0545816 89.5355 0 89.3259 0ZM48.2258 20.9759C47.8578 20.9759 47.4902 21.0718 47.161 21.2626L34.605 28.5849C33.9508 28.9623 33.5484 29.6608 33.5484 30.4114V45.0725C33.5484 45.8273 33.9508 46.5215 34.605 46.8989L47.161 54.2213C47.8194 54.6029 48.6322 54.6029 49.2906 54.2213L61.8466 46.8989C62.5008 46.5215 62.9032 45.8231 62.9032 45.0725V30.4114C62.9032 29.6566 62.5008 28.9623 61.8466 28.5849L49.2906 21.2626C48.9614 21.0718 48.5938 20.9759 48.2258 20.9759ZM115.323 20.9759C114.954 20.9759 114.585 21.0697 114.258 21.2626L101.702 28.5849C101.048 28.9623 100.645 29.6608 100.645 30.4114V45.0725C100.645 45.8273 101.048 46.5215 101.702 46.8989L113.881 54.2622C114.535 54.6606 115.356 54.6644 116.019 54.2786L122.006 50.7976C122.627 50.4412 122.631 49.5407 122.006 49.1759L109.032 41.5341V34.0071L115.323 30.3459L121.613 34.0071V39.249C121.613 39.9493 122.202 40.0572 122.596 39.8223C124.181 38.8914 128.96 36.1202 128.96 36.1202C129.601 35.747 130 35.0566 130 34.3101V30.4114C130 29.6566 129.598 28.9623 128.943 28.5849L116.387 21.2626C116.056 21.0697 115.692 20.9759 115.323 20.9759ZM14.6774 20.9841C14.3084 20.9841 13.9397 21.0779 13.6127 21.2708L1.05658 28.5849C0.402384 28.9665 0 29.6648 0 30.4196V49.135C0 50.0491 0.988957 50.6159 1.77734 50.1588L7.3469 46.9153C7.98851 46.5379 8.3871 45.8517 8.3871 45.1052V34.0234L14.6774 30.3541L20.9677 34.0234V45.1052C20.9677 45.8517 21.3663 46.5379 22.0079 46.9153L27.5775 50.1588C28.3659 50.6201 29.3548 50.0491 29.3548 49.135V30.4196C29.3548 29.6648 28.9525 28.9665 28.2983 28.5849L15.7422 21.2708C15.4151 21.0779 15.0465 20.9841 14.6774 20.9841ZM81.7742 30.3459L88.0645 34.0152V37.7419V41.4686L81.7742 45.138L75.4839 41.4686V34.0152L81.7742 30.3459ZM115.323 33.5648L111.727 35.6615V39.8469L115.323 41.9355L118.918 39.8469V35.6615L115.323 33.5648ZM64.6069 50.3144C64.1754 50.3144 63.7393 50.4199 63.3619 50.6338L51.5675 57.4483C50.7917 57.8761 50.3226 58.7178 50.3226 59.5943V73.2069C50.3226 74.0834 50.8127 74.9083 51.5675 75.3528L54.6717 77.122C56.1605 77.8558 56.7076 77.8591 57.3828 77.8591C59.6054 77.8591 60.872 76.53 60.872 74.1816V60.7327C60.872 60.5273 60.7125 60.3805 60.528 60.3805H59.0373C58.8318 60.3805 58.6851 60.5482 58.6851 60.7327V74.1816C58.6851 75.2006 57.6083 76.2457 55.8512 75.3692L52.6241 73.51C52.5193 73.447 52.4439 73.3203 52.4439 73.1987V59.5861C52.4439 59.4644 52.5025 59.3213 52.6241 59.2584L64.4185 52.4603C64.5443 52.3974 64.6864 52.3974 64.787 52.4603L76.5896 59.2584C76.7112 59.3213 76.7698 59.4435 76.7698 59.5861V73.1987C76.7698 73.3413 76.6902 73.4634 76.5896 73.5263L64.787 80.349C64.6822 80.4119 64.5191 80.4119 64.4185 80.349L61.4044 78.5553C61.3247 78.5134 61.1974 78.4888 61.1177 78.5307C60.2832 79.0214 60.1162 79.0856 59.3403 79.3498C59.1349 79.4127 58.8555 79.5387 59.4468 79.8658L63.3619 82.1919C63.7519 82.3974 64.1791 82.5195 64.6069 82.5195C65.0556 82.5195 65.4916 82.3978 65.8354 82.1755L77.6298 75.3528C78.4056 74.9251 78.8747 74.0834 78.8747 73.2069V59.5943C78.8747 58.7178 78.3846 57.897 77.6298 57.4483L65.8354 50.6338C65.4685 50.4199 65.0383 50.3144 64.6069 50.3144ZM83.0028 56.5965C81.7992 56.5965 80.7422 57.5697 80.7422 58.8571C80.7422 60.1026 81.7573 61.1259 83.0028 61.1259C84.2483 61.1259 85.2634 60.1026 85.2634 58.8571C85.2634 57.5697 84.2273 56.5756 83.0028 56.5965ZM82.9782 56.9569C84.0434 56.9569 84.903 57.7961 84.903 58.8571C84.903 59.8971 84.0392 60.7567 82.9782 60.7819C81.934 60.7819 81.0862 59.9181 81.0862 58.8571C81.0862 57.7961 81.9382 56.9569 82.9782 56.9569ZM82.151 57.5712V60.1184H82.6342V59.1028H83.0847C83.2692 59.1028 83.313 59.1814 83.355 59.324C83.355 59.3449 83.4323 60.005 83.4532 60.1266H83.9774C83.9187 60.005 83.8756 59.6565 83.8546 59.4468C83.7959 59.1197 83.7767 58.8945 83.4287 58.8735C83.6132 58.8106 83.9201 58.7125 83.9201 58.2428C83.9201 57.5677 83.3335 57.5712 83.0273 57.5712H82.151ZM82.6342 57.9807H83.0437C83.1695 57.9807 83.4123 57.9767 83.4123 58.3247C83.4123 58.4673 83.3504 58.6975 83.0191 58.6933H82.6342V57.9807ZM67.7684 60.0611C64.401 60.0611 62.4036 61.4964 62.4036 63.8615C62.4036 66.4531 64.4043 67.1464 67.6292 67.4735C71.4872 67.8593 71.7899 68.4141 71.7899 69.169C71.7899 70.4941 70.7262 71.0446 68.2353 71.0446C65.1111 71.0446 64.4238 70.2701 64.1973 68.7185C64.1764 68.5549 64.0296 68.4318 63.8451 68.4318H62.3135C62.129 68.4318 61.9695 68.5785 61.9695 68.784C61.9695 70.7634 63.0484 73.1332 68.2107 73.1332C71.9975 73.129 74.1406 71.6619 74.1406 69.0871C74.1406 66.5374 72.4238 65.8592 68.7922 65.3686C65.1187 64.8779 64.7543 64.6311 64.7543 63.7714C64.7543 63.0585 65.0552 62.1251 67.7684 62.1251C70.1965 62.1251 71.1015 62.6561 71.4705 64.2874C71.5124 64.451 71.6264 64.5495 71.7899 64.5495H73.3216C73.4222 64.5495 73.5086 64.5099 73.5673 64.4512C73.6302 64.3716 73.6702 64.2898 73.6492 64.1891C73.406 61.3711 71.5468 60.0611 67.7684 60.0611Z" fill="#66A060"/>
</svg>
