<svg width="180" height="110" viewBox="0 0 180 110" fill="none" xmlns="http://www.w3.org/2000/svg">
<g clip-path="url(#clip0)">
<path d="M88.6691 109.683C88.0618 109.683 87.495 109.521 86.9686 109.237L81.5837 106.039C80.7739 105.593 81.1788 105.431 81.4217 105.35C82.5149 104.986 82.7173 104.905 83.851 104.257C83.9725 104.176 84.1344 104.217 84.2559 104.298L88.3857 106.768C88.5476 106.849 88.7501 106.849 88.8716 106.768L105.026 97.4147C105.188 97.3338 105.269 97.1718 105.269 96.9694V78.3043C105.269 78.1018 105.188 77.9399 105.026 77.8589L88.8716 68.5466C88.7096 68.4656 88.5072 68.4656 88.3857 68.5466L72.2309 77.8589C72.0689 77.9399 71.9879 78.1423 71.9879 78.3043V96.9694C71.9879 97.1313 72.0689 97.3338 72.2309 97.4147L76.6441 99.9655C79.0329 101.18 80.531 99.7631 80.531 98.346V79.9238C80.531 79.6809 80.7334 79.438 81.0168 79.438H83.0817C83.3247 79.438 83.5676 79.6404 83.5676 79.9238V98.346C83.5676 101.545 81.8266 103.407 78.79 103.407C77.8587 103.407 77.13 103.407 75.0651 102.395L70.8138 99.9655C69.7611 99.3582 69.1133 98.2245 69.1133 97.0099V78.3448C69.1133 77.1301 69.7611 75.9965 70.8138 75.3891L86.9686 66.0363C87.9808 65.4695 89.3574 65.4695 90.3696 66.0363L106.524 75.3891C107.577 75.9965 108.225 77.1301 108.225 78.3448V97.0099C108.225 98.2245 107.577 99.3582 106.524 99.9655L90.3696 109.318C89.8433 109.561 89.2359 109.683 88.6691 109.683ZM93.6492 96.8479C86.5637 96.8479 85.1061 93.6088 85.1061 90.8556C85.1061 90.6127 85.3086 90.3698 85.592 90.3698H87.6974C87.9403 90.3698 88.1428 90.5317 88.1428 90.7747C88.4667 92.9205 89.3979 93.9732 93.6897 93.9732C97.0907 93.9732 98.5482 93.204 98.5482 91.382C98.5482 90.3293 98.1434 89.56 92.8394 89.0337C88.4262 88.5883 85.673 87.6166 85.673 84.0941C85.673 80.8146 88.4262 78.8711 93.0418 78.8711C98.2243 78.8711 100.775 80.6526 101.099 84.5395C101.099 84.6609 101.059 84.7824 100.978 84.9039C100.897 84.9848 100.775 85.0658 100.654 85.0658H98.5482C98.3458 85.0658 98.1434 84.9039 98.1029 84.7014C97.617 82.4746 96.3619 81.7458 93.0418 81.7458C89.3169 81.7458 88.8716 83.0414 88.8716 84.0131C88.8716 85.1873 89.3979 85.5517 94.4184 86.1995C99.3985 86.8473 101.747 87.7785 101.747 91.2605C101.706 94.8235 98.7912 96.8479 93.6492 96.8479Z" fill="#539E43"/>
<path d="M38.5447 36.6824C38.5447 35.9537 38.1398 35.2654 37.492 34.901L20.3249 25.0218C20.0415 24.8599 19.7176 24.7789 19.3937 24.7384H19.2318C18.9079 24.7384 18.584 24.8599 18.3005 25.0218L1.13351 34.901C0.485693 35.2654 0.0808105 35.9537 0.0808105 36.6824L0.121299 63.2428C0.121299 63.6072 0.32374 63.9715 0.647646 64.1335C0.971552 64.3359 1.37644 64.3359 1.65985 64.1335L11.8629 58.3032C12.5107 57.9388 12.9156 57.2505 12.9156 56.5217V44.0918C12.9156 43.363 13.3205 42.6747 13.9683 42.3103L18.3005 39.8C18.6244 39.5976 18.9888 39.5166 19.3532 39.5166C19.7176 39.5166 20.082 39.5976 20.3654 39.8L24.6977 42.3103C25.3455 42.6747 25.7504 43.363 25.7504 44.0918V56.5217C25.7504 57.2505 26.1553 57.9388 26.8031 58.3032L37.0061 64.1335C37.33 64.3359 37.7349 64.3359 38.0588 64.1335C38.3827 63.9715 38.5852 63.6072 38.5852 63.2428L38.5447 36.6824Z" fill="#333333"/>
<path d="M121.06 0.121465C120.736 -0.0404883 120.331 -0.0404883 120.048 0.121465C119.724 0.323906 119.521 0.647812 119.521 1.01221V27.3296C119.521 27.5725 119.4 27.8154 119.157 27.9774C118.914 28.0989 118.671 28.0989 118.428 27.9774L114.136 25.5076C113.489 25.1432 112.719 25.1432 112.072 25.5076L94.9045 35.4272C94.2567 35.7916 93.8518 36.4799 93.8518 37.2087V57.0075C93.8518 57.7363 94.2567 58.4246 94.9045 58.789L112.072 68.7086C112.719 69.073 113.489 69.073 114.136 68.7086L131.303 58.789C131.951 58.4246 132.356 57.7363 132.356 57.0075V7.65228C132.356 6.88301 131.951 6.19471 131.303 5.83031L121.06 0.121465ZM119.481 50.4889C119.481 50.6913 119.4 50.8533 119.238 50.9342L113.367 54.3353C113.205 54.4162 113.003 54.4162 112.841 54.3353L106.97 50.9342C106.808 50.8533 106.727 50.6508 106.727 50.4889V43.6868C106.727 43.4844 106.808 43.3225 106.97 43.2415L112.841 39.8405C113.003 39.7595 113.205 39.7595 113.367 39.8405L119.238 43.2415C119.4 43.3225 119.481 43.5249 119.481 43.6868V50.4889Z" fill="#333333"/>
<path d="M178.189 43.5248C178.837 43.1604 179.201 42.4721 179.201 41.7434V36.9253C179.201 36.1965 178.796 35.5082 178.189 35.1438L161.143 25.2646C160.495 24.9002 159.726 24.9002 159.078 25.2646L141.911 35.1843C141.264 35.5487 140.859 36.237 140.859 36.9657V56.7645C140.859 57.4933 141.264 58.1816 141.911 58.546L158.957 68.2632C159.605 68.6276 160.374 68.6276 160.981 68.2632L171.306 62.5138C171.63 62.3519 171.832 61.9875 171.832 61.6231C171.832 61.2587 171.63 60.8943 171.306 60.7324L154.058 50.8127C153.734 50.6103 153.531 50.2864 153.531 49.922V43.7273C153.531 43.3629 153.734 42.9985 154.058 42.8365L159.443 39.7594C159.767 39.557 160.172 39.557 160.495 39.7594L165.88 42.8365C166.204 43.039 166.407 43.3629 166.407 43.7273V48.5859C166.407 48.9503 166.609 49.3147 166.933 49.4766C167.257 49.6791 167.662 49.6791 167.986 49.4766L178.189 43.5248Z" fill="#333333"/>
<path d="M159.848 42.5936C159.969 42.5126 160.131 42.5126 160.253 42.5936L163.532 44.4965C163.654 44.5775 163.735 44.699 163.735 44.8609V48.6668C163.735 48.8288 163.654 48.9502 163.532 49.0312L160.253 50.9342C160.131 51.0151 159.969 51.0151 159.848 50.9342L156.568 49.0312C156.447 48.9502 156.366 48.8288 156.366 48.6668V44.8609C156.366 44.699 156.447 44.5775 156.568 44.4965L159.848 42.5936Z" fill="#539E43"/>
<mask id="mask0" mask-type="alpha" maskUnits="userSpaceOnUse" x="47" y="25" width="39" height="44">
<path d="M67.2508 25.3457C66.603 24.9813 65.8338 24.9813 65.1859 25.3457L48.1404 35.1843C47.4926 35.5487 47.1282 36.237 47.1282 36.9658V56.6836C47.1282 57.4124 47.5331 58.1007 48.1404 58.4651L65.1859 68.3037C65.8338 68.6681 66.603 68.6681 67.2508 68.3037L84.2964 58.4651C84.9442 58.1007 85.3086 57.4124 85.3086 56.6836V36.9658C85.3086 36.237 84.9037 35.5487 84.2964 35.1843L67.2508 25.3457Z" fill="white"/>
</mask>
<g mask="url(#mask0)">
<path d="M67.2508 25.3457C66.603 24.9813 65.8338 24.9813 65.1859 25.3457L48.1404 35.1843C47.4926 35.5487 47.1282 36.237 47.1282 36.9658V56.6836C47.1282 57.4124 47.5331 58.1007 48.1404 58.4651L65.1859 68.3037C65.8338 68.6681 66.603 68.6681 67.2508 68.3037L84.2964 58.4651C84.9442 58.1007 85.3086 57.4124 85.3086 56.6836V36.9658C85.3086 36.237 84.9037 35.5487 84.2964 35.1843L67.2508 25.3457Z" fill="url(#paint0_linear)"/>
<path d="M84.337 35.1844L67.2105 25.3458C67.0485 25.2648 66.8461 25.1838 66.6841 25.1433L47.4927 58.0198C47.6546 58.2222 47.8571 58.3842 48.0595 58.5056L65.186 68.3443C65.6719 68.6277 66.2387 68.7087 66.7651 68.5467L84.7824 35.5893C84.6609 35.4273 84.499 35.3059 84.337 35.1844Z" fill="url(#paint1_linear)"/>
<path fill-rule="evenodd" clip-rule="evenodd" d="M84.3776 58.4651C84.8635 58.1817 85.2279 57.6958 85.3898 57.1695L66.6033 25.1028C66.1174 25.0218 65.5911 25.0623 65.1457 25.3457L48.1406 35.1439L66.4818 68.5872C66.7247 68.5467 67.0082 68.4657 67.2511 68.3442L84.3776 58.4651Z" fill="url(#paint2_linear)"/>
<path fill-rule="evenodd" clip-rule="evenodd" d="M84.3775 58.4651L67.2915 68.3038C67.0486 68.4252 66.8056 68.5062 66.5222 68.5467L66.8461 69.154L85.7946 58.1817V57.9388L85.3088 57.129C85.2278 57.6959 84.8634 58.1817 84.3775 58.4651Z" fill="url(#paint3_linear)"/>
<path fill-rule="evenodd" clip-rule="evenodd" d="M84.3775 58.4651L67.2915 68.3038C67.0486 68.4252 66.8056 68.5062 66.5222 68.5467L66.8461 69.154L85.7946 58.1817V57.9388L85.3088 57.129C85.2278 57.6959 84.8634 58.1817 84.3775 58.4651Z" fill="url(#paint4_linear)"/>
</g>
</g>
<defs>
<linearGradient id="paint0_linear" x1="73.1628" y1="32.68" x2="54.4785" y2="62.0373" gradientUnits="userSpaceOnUse">
<stop stop-color="#41873F"/>
<stop offset="0.3288" stop-color="#418B3D"/>
<stop offset="0.6352" stop-color="#419637"/>
<stop offset="0.9319" stop-color="#3FA92D"/>
<stop offset="1" stop-color="#3FAE2A"/>
</linearGradient>
<linearGradient id="paint1_linear" x1="63.6304" y1="49.134" x2="110.422" y2="23.7121" gradientUnits="userSpaceOnUse">
<stop offset="0.1376" stop-color="#41873F"/>
<stop offset="0.4032" stop-color="#54A044"/>
<stop offset="0.7136" stop-color="#66B848"/>
<stop offset="0.9081" stop-color="#6CC04A"/>
</linearGradient>
<linearGradient id="paint2_linear" x1="46.5058" y1="46.8253" x2="85.9483" y2="46.8253" gradientUnits="userSpaceOnUse">
<stop offset="0.0919165" stop-color="#6CC04A"/>
<stop offset="0.2864" stop-color="#66B848"/>
<stop offset="0.5968" stop-color="#54A044"/>
<stop offset="0.8624" stop-color="#41873F"/>
</linearGradient>
<linearGradient id="paint3_linear" x1="46.5057" y1="63.1747" x2="85.9482" y2="63.1747" gradientUnits="userSpaceOnUse">
<stop offset="0.0919165" stop-color="#6CC04A"/>
<stop offset="0.2864" stop-color="#66B848"/>
<stop offset="0.5968" stop-color="#54A044"/>
<stop offset="0.8624" stop-color="#41873F"/>
</linearGradient>
<linearGradient id="paint4_linear" x1="91.6945" y1="31.7479" x2="81.7022" y2="84.1075" gradientUnits="userSpaceOnUse">
<stop stop-color="#41873F"/>
<stop offset="0.3288" stop-color="#418B3D"/>
<stop offset="0.6352" stop-color="#419637"/>
<stop offset="0.9319" stop-color="#3FA92D"/>
<stop offset="1" stop-color="#3FAE2A"/>
</linearGradient>
<clipPath id="clip0">
<rect width="179.363" height="110" fill="white"/>
</clipPath>
</defs>
</svg>
