<svg width="91" height="100" viewBox="0 0 91 100" fill="none" xmlns="http://www.w3.org/2000/svg">
<path d="M83.6993 52.8264C82.8001 51.6605 81.8243 50.4943 80.7816 49.3326C81.4984 48.5008 82.1814 47.6674 82.8242 46.8342C89.4679 38.2197 91.3542 30.4051 88.1355 24.8303C84.9169 19.2553 77.207 16.9816 66.4238 18.4281C65.287 18.5807 64.1267 18.774 62.9478 19.0037C62.5466 17.8309 62.1218 16.6947 61.6722 15.6018C57.5335 5.54082 51.7091 0 45.2718 0C38.8345 0 33.0101 5.54082 28.8716 15.6018C28.422 16.6947 27.9972 17.8309 27.596 19.0037C26.4171 18.7742 25.2566 18.5807 24.1201 18.4281C13.338 16.9818 5.62708 19.2553 2.40833 24.8303C-0.810417 30.4053 1.07591 38.2197 7.71966 46.8342C8.36224 47.6674 9.04525 48.5008 9.76224 49.3326C8.71927 50.4943 7.74368 51.6604 6.84447 52.8264C0.200716 61.4408 -1.68561 69.2555 1.53314 74.8303C4.11927 79.3096 9.60365 81.6574 17.2527 81.6574C19.1236 81.6574 21.1255 81.5168 23.2447 81.2324C24.6095 81.0492 26.0083 80.8078 27.4333 80.5139C27.8816 81.8584 28.3607 83.1562 28.8716 84.3984C33.0101 94.4592 38.8345 100 45.2718 100C51.7091 100 57.5335 94.4592 61.672 84.3982C62.1829 83.1561 62.662 81.8582 63.1103 80.5137C64.5353 80.8076 65.9341 81.0492 67.299 81.2322C69.4187 81.5166 71.4195 81.6572 73.291 81.6572C80.9392 81.6572 86.4247 79.3092 89.0105 74.8301C92.2294 69.2553 90.3431 61.4408 83.6993 52.8264V52.8264ZM72.4488 23.8527C77.8046 23.8527 81.5902 25.2123 83.0611 27.7598C84.9857 31.0934 83.2081 36.7414 78.1843 43.2557C77.7056 43.8764 77.2015 44.4975 76.6765 45.1184C73.7392 42.3238 70.4327 39.5895 66.8355 36.9836C66.3386 32.6443 65.5915 28.4979 64.6146 24.6426C67.4826 24.1133 70.1159 23.8527 72.4488 23.8527V23.8527ZM53.0501 64.0609C50.4163 65.5814 47.8169 66.9455 45.2736 68.1584C42.7286 66.9451 40.1286 65.5824 37.4935 64.0609C34.5863 62.3824 31.804 60.6059 29.1792 58.7605C28.9589 55.9578 28.8398 53.0334 28.8398 50C28.8398 46.602 28.9888 43.34 29.263 40.234C31.6036 38.6268 34.0624 37.0752 36.6181 35.5996C39.5556 33.9037 42.4495 32.4049 45.2716 31.091C48.0939 32.4049 50.9878 33.9037 53.9253 35.5996C56.4812 37.0752 58.9398 38.6268 61.2804 40.234C61.5546 43.34 61.7036 46.602 61.7036 50C61.7036 53.0334 61.5845 55.9578 61.3642 58.7605C58.7396 60.6059 55.9574 62.3824 53.0501 64.0609V64.0609ZM60.4704 66.407C60.0779 68.9012 59.6017 71.2637 59.0548 73.4777C56.8816 72.8463 54.6173 72.0822 52.282 71.182C53.5175 70.526 54.7513 69.8445 55.9798 69.1353C57.5099 68.2518 59.0074 67.3406 60.4704 66.407ZM38.2613 71.1818C35.9255 72.0822 33.6618 72.8455 31.4884 73.477C30.9417 71.2633 30.4656 68.901 30.073 66.407C31.5361 67.3406 33.0335 68.2518 34.5636 69.1352C35.7921 69.8445 37.0257 70.526 38.2613 71.1818ZM23.0519 54.0906C21.1964 52.5535 19.4579 50.9875 17.8538 49.4068C19.4794 47.8566 21.231 46.3234 23.0943 44.8201C23.0195 46.5301 22.9804 48.2582 22.9804 50C22.9804 51.3729 23.0052 52.7369 23.0519 54.0906ZM30.2351 32.5992C30.629 30.2646 31.097 28.0518 31.6273 25.973C33.7091 26.5549 35.8786 27.2611 38.1171 28.0934C36.637 28.8658 35.1591 29.6764 33.6886 30.5254C32.5179 31.2012 31.3669 31.8936 30.2351 32.5992V32.5992ZM52.4263 28.0932C54.6648 27.2609 56.8343 26.5545 58.9163 25.9729C59.4466 28.0518 59.9146 30.2646 60.3085 32.5992C59.1767 31.8936 58.0257 31.2012 56.8552 30.5254C55.3843 29.6762 53.9066 28.8656 52.4263 28.0932ZM67.4493 44.8201C69.3126 46.3234 71.0642 47.8566 72.6898 49.4068C71.0857 50.9875 69.3472 52.5535 67.4917 54.0906C67.5384 52.7369 67.5632 51.3729 67.5632 50C67.5632 48.258 67.5242 46.5301 67.4493 44.8201V44.8201ZM45.2718 5.85938C49.5099 5.85938 54.0118 11.2506 57.2298 20.3705C53.3527 21.4602 49.3335 22.9049 45.2718 24.6709C41.2101 22.9049 37.1909 21.4604 33.3138 20.3705C36.5318 11.2506 41.0337 5.85938 45.2718 5.85938ZM7.48255 27.76C8.95365 25.2121 12.7374 23.8529 18.0949 23.8529C20.4275 23.8529 23.0611 24.1135 25.9292 24.643C24.9521 28.4982 24.2052 32.6447 23.7083 36.9838C20.1111 39.5896 16.8046 42.324 13.8673 45.1186C13.3423 44.4977 12.8382 43.8766 12.3595 43.2559C7.33548 36.7416 5.55794 31.0936 7.48255 27.76ZM17.2197 75.8076C11.8638 75.8072 8.07825 74.448 6.60736 71.9006C4.68275 68.567 6.46029 62.9189 11.4841 56.4047C12.1999 55.4764 12.9693 54.5471 13.7874 53.6193C16.6915 56.4744 19.9878 59.275 23.5917 61.9492C24.0661 66.4934 24.8111 70.84 25.807 74.8744C22.645 75.5016 19.7554 75.8078 17.2197 75.8076V75.8076ZM45.2718 94.1406C40.9515 94.1406 36.3575 88.5371 33.1286 79.0936C37.0712 77.9475 41.1536 76.4383 45.2718 74.6039C49.39 76.4383 53.4724 77.9475 57.415 79.0936C54.1861 88.5371 49.5921 94.1406 45.2718 94.1406ZM83.9363 71.9006C81.7691 75.6545 74.5792 76.8266 64.7365 74.8744C65.7325 70.84 66.4773 66.4934 66.9517 61.9492C70.5558 59.275 73.8521 56.4744 76.756 53.6193C77.5742 54.5471 78.3435 55.4766 79.0593 56.4047C84.0835 62.9189 85.8611 68.567 83.9363 71.9006Z" fill="#61DAFB"/>
<path d="M45.2717 59.0527C50.2714 59.0527 54.3245 54.9997 54.3245 50C54.3245 45.0003 50.2714 40.9473 45.2717 40.9473C40.272 40.9473 36.219 45.0003 36.219 50C36.219 54.9997 40.272 59.0527 45.2717 59.0527Z" fill="#61DAFB"/>
</svg>
