<svg width="100" height="97" viewBox="0 0 100 97" fill="none" xmlns="http://www.w3.org/2000/svg">
<path d="M65.7323 56.568C55.2442 52.3961 44.7561 52.3961 34.268 56.568C33.1534 57.0114 32.4221 58.0918 32.4221 59.2916V69.3594C32.4221 80.5645 38.7432 90.7627 48.6707 95.7772C49.5069 96.1994 50.4936 96.1994 51.3299 95.7772C61.2571 90.7625 67.5782 80.5643 67.5782 69.3592V59.2914C67.5782 58.0918 66.8469 57.0114 65.7323 56.568ZM58.2866 72.8518L50 81.1383C48.8559 82.2825 47.001 82.2825 45.8569 81.1383L41.7137 76.9951C40.5696 75.851 40.5696 73.9961 41.7137 72.852C42.8579 71.7078 44.7127 71.7078 45.8569 72.852L47.9286 74.9237L54.1434 68.7088C55.2875 67.5647 57.1424 67.5647 58.2866 68.7088C59.4305 69.8528 59.4305 71.7076 58.2866 72.8518V72.8518Z" fill="#66A060"/>
<path d="M48.3359 27.9922C47.7928 28.8072 46.8779 29.2969 45.8984 29.2969H0V73.2422C0 78.0885 3.94277 82.0312 8.78906 82.0312H28.9086C27.3668 78.0033 26.5625 73.7133 26.5625 69.3592V59.2914C26.5625 55.6684 28.7369 52.4623 32.1018 51.1234C38.0139 48.7717 44.0355 47.5795 50 47.5795C55.9645 47.5795 61.9861 48.7717 67.8979 51.1232C71.2631 52.4621 73.4375 55.6684 73.4375 59.2914V69.3592C73.4375 73.7131 72.6332 78.0033 71.0912 82.0312H91.2109C96.0572 82.0312 100 78.0885 100 73.2422V17.5781H55.2787L48.3359 27.9922Z" fill="#66A060"/>
<path d="M91.2109 0H8.78906C3.94277 0 0 3.94277 0 8.78906V23.4375H44.3307L51.2734 13.0234C51.8166 12.2082 52.7313 11.7188 53.7109 11.7188H100V8.78906C100 3.94277 96.0572 0 91.2109 0ZM14.6484 14.6484C13.0305 14.6484 11.7188 13.3367 11.7188 11.7188C11.7188 10.1008 13.0305 8.78906 14.6484 8.78906C16.2664 8.78906 17.5781 10.1008 17.5781 11.7188C17.5781 13.3367 16.2664 14.6484 14.6484 14.6484ZM26.3672 14.6484C24.7492 14.6484 23.4375 13.3367 23.4375 11.7188C23.4375 10.1008 24.7492 8.78906 26.3672 8.78906C27.9852 8.78906 29.2969 10.1008 29.2969 11.7188C29.2969 13.3367 27.9852 14.6484 26.3672 14.6484ZM38.0859 14.6484C36.468 14.6484 35.1562 13.3367 35.1562 11.7188C35.1562 10.1008 36.468 8.78906 38.0859 8.78906C39.7039 8.78906 41.0156 10.1008 41.0156 11.7188C41.0156 13.3367 39.7039 14.6484 38.0859 14.6484Z" fill="#66A060"/>
</svg>
