<svg width="100" height="100" viewBox="0 0 100 100" fill="none" xmlns="http://www.w3.org/2000/svg">
<path d="M100 0H0V100H100V0Z" fill="#1976D2"/>
<path d="M59.6947 44.4445H22.853V53.5111H36.0669V94.4445H46.5364V53.5111H59.6947V44.4445Z" fill="white"/>
<path d="M92.2054 55.7888C92.2054 55.7888 87.2416 52.4777 81.6304 52.4777C76.0193 52.4777 73.9999 55.1444 73.9999 57.9944C73.9999 65.3499 94.5027 64.6138 94.5027 79.4166C94.5027 102.219 63.2416 92.1055 63.2416 92.1055V81.1666C63.2416 81.1666 69.2193 85.6721 76.3888 85.6721C83.5582 85.6721 83.286 80.9833 83.286 80.3388C83.286 73.536 62.9666 73.536 62.9666 58.4555C62.9666 37.9527 92.5721 46.0416 92.5721 46.0416L92.2054 55.7888Z" fill="white"/>
</svg>
