<svg width="100" height="100" viewBox="0 0 100 100" fill="none" xmlns="http://www.w3.org/2000/svg">
<path d="M97.4333 10.856L89.1447 2.56517C85.7199 -0.853552 80.1466 -0.856604 76.7164 2.56822L74.7343 4.54881L85.0927 14.9072C86.2372 16.0516 86.2372 17.9056 85.0927 19.05C83.9483 20.1944 82.0944 20.1944 80.95 19.05L70.5923 8.69157L66.4488 12.8358L72.6652 19.05C73.8097 20.1913 73.8097 22.0483 72.6652 23.1927C71.5208 24.3371 69.6669 24.3371 68.5225 23.1927L62.3061 16.9786L54.019 25.2664L74.7343 45.9809L97.4363 23.285C100.855 19.8572 100.855 14.2839 97.4333 10.856Z" fill="#FFD600"/>
<path d="M10.8566 97.4281C14.2875 100.859 19.86 100.856 23.2872 97.4281L45.7336 74.9832L25.0183 54.2649L16.7305 62.5527L22.9461 68.7683C24.0905 69.9128 24.0905 71.7667 22.9461 72.9111C21.8017 74.0555 19.9478 74.0555 18.8034 72.9111L12.5877 66.6954L8.4442 70.8397L18.8034 81.1966C19.9478 82.341 19.9478 84.195 18.8034 85.3394C17.659 86.4838 15.805 86.4838 14.6606 85.3394L4.30144 74.9825L2.57034 76.7113C-0.856779 80.1392 -0.856779 85.7155 2.57034 89.1426L10.8566 97.4281Z" fill="#FFD600"/>
<path d="M0.195353 3.97736L11.2465 30.7504L30.5046 11.4915L3.978 0.194715C2.90455 -0.220323 1.67774 0.0406015 0.859109 0.858471C0.0412397 1.67634 -0.218922 2.89857 0.195353 3.97736V3.97736Z" fill="#FFD600"/>
<path d="M80.7867 76.651L89.0715 68.3655L35.3744 14.9072L27.0889 23.1927L80.7867 76.651Z" fill="#FFD600"/>
<path d="M76.644 80.7938L22.9462 27.3354L14.6606 35.621L68.3555 89.0823L76.644 80.7938Z" fill="#FFD600"/>
<path d="M97.4234 76.7174L93.2142 72.5083L72.4982 93.2251L76.7096 97.4365C80.1161 100.838 85.697 100.871 89.1378 97.4365C89.1378 97.4335 89.1378 97.4335 89.1378 97.4335L97.4234 89.148C100.854 85.7178 100.864 80.1575 97.4234 76.7174V76.7174Z" fill="#FFD600"/>
</svg>
